{
DisplayStrings = (
/dashboard_exchange,
"",
/dashboard_messaging
);
copyright = "2013 Dimagi, Inc.";
customParameters = (
{
name = glyphOrder;
value = (
    ".notdef, commcare_flower, qtype_text, qtype_numeric, qtype_hidden_value, qtype_calculation, qtype_variable, qtype_single_select, qtype_multi_select, qtype_decimal, qtype_long, qtype_datetime, qtype_audio_capture"
);
}
);
date = "2013-04-30 02:41:46 +0000";
designer = "Biyeun Buczyk";
designerURL = "http://biyeun.com";
familyName = "CommCareHQ Font";
fontMaster = (
{
alignmentZones = (
"{1344, 27}",
"{0, -27}"
);
ascender = 1536;
capHeight = 1792;
customParameters = (
{
name = typoAscender;
value = 1536;
},
{
name = typoDescender;
value = "-256";
},
{
name = typoLineGap;
value = 0;
},
{
name = underlinePosition;
value = "-179";
}
);
descender = "-256";
horizontalStems = (
125,
256
);
id = "0E8E95BE-A652-47D8-991C-41CDFAEAC62E";
userData = {
GSCornerRadius = 15;
};
verticalStems = (
128,
256
);
weightValue = 400;
widthValue = 400;
xHeight = 1792;
}
);
glyphs = (
{
glyphname = commcare_flower;
lastChange = "2013-05-07 13:01:13 -0500";
layers = (
{
layerId = "0E8E95BE-A652-47D8-991C-41CDFAEAC62E";
name = Regular;
paths = (
{
closed = 1;
nodes = (
"204 1272 OFFCURVE",
"177 1269 OFFCURVE",
"153 1272 CURVE SMOOTH",
"125 1274 OFFCURVE",
"108 1284 OFFCURVE",
"86 1302 CURVE",
"66 1312 OFFCURVE",
"45 1328 OFFCURVE",
"34 1350 CURVE",
"19 1372 OFFCURVE",
"10 1406 OFFCURVE",
"7 1436 CURVE SMOOTH",
"4 1475 OFFCURVE",
"15 1516 OFFCURVE",
"35 1547 CURVE SMOOTH",
"51 1567 OFFCURVE",
"66 1582 OFFCURVE",
"84 1594 CURVE",
"116 1620 OFFCURVE",
"155 1630 OFFCURVE",
"192 1630 CURVE",
"192 1630 OFFCURVE",
"216 1636 OFFCURVE",
"229 1630 CURVE",
"246 1628 OFFCURVE",
"229 1630 OFFCURVE",
"229 1630 CURVE",
"253 1626 OFFCURVE",
"280 1614 OFFCURVE",
"302 1594 CURVE SMOOTH",
"324 1579 OFFCURVE",
"335 1565 OFFCURVE",
"347 1542 CURVE",
"354 1530 OFFCURVE",
"362 1510 OFFCURVE",
"367 1495 CURVE",
"371 1481 OFFCURVE",
"371 1465 OFFCURVE",
"371 1446 CURVE",
"367 1419 OFFCURVE",
"354 1397 OFFCURVE",
"342 1372 CURVE SMOOTH",
"327 1350 OFFCURVE",
"308 1328 OFFCURVE",
"290 1312 CURVE",
"265 1299 OFFCURVE",
"251 1284 OFFCURVE",
"229 1282 CURVE"
);
},
{
closed = 1;
nodes = (
"229 956 LINE",
"229 959 OFFCURVE",
"226 959 OFFCURVE",
"221 960 CURVE",
"162 1045 OFFCURVE",
"123 1137 OFFCURVE",
"91 1231 CURVE",
"131 1231 OFFCURVE",
"177 1225 OFFCURVE",
"221 1225 CURVE SMOOTH",
"229 1225 LINE SMOOTH",
"234 1225 OFFCURVE",
"236 1225 OFFCURVE",
"236 1227 CURVE",
"271 1227 OFFCURVE",
"306 1237 OFFCURVE",
"335 1265 CURVE",
"430 1328 OFFCURVE",
"431 1446 OFFCURVE",
"431 1547 CURVE",
"667 1485 OFFCURVE",
"848 1272 OFFCURVE",
"893 1038 CURVE SMOOTH",
"911 949 OFFCURVE",
"932 856 OFFCURVE",
"920 765 CURVE",
"864 856 OFFCURVE",
"834 959 OFFCURVE",
"762 1037 CURVE SMOOTH",
"677 1127 OFFCURVE",
"577 1222 OFFCURVE",
"448 1225 CURVE",
"421 1227 OFFCURVE",
"406 1210 OFFCURVE",
"392 1190 CURVE",
"367 1137 OFFCURVE",
"362 1072 OFFCURVE",
"394 1021 CURVE",
"436 998 OFFCURVE",
"483 991 OFFCURVE",
"538 979 CURVE",
"563 882 OFFCURVE",
"455 790 OFFCURVE",
"361 822 CURVE",
"314 858 OFFCURVE",
"271 897 OFFCURVE",
"236 947 CURVE"
);
},
{
closed = 1;
nodes = (
"1429 1429 OFFCURVE",
"1426 1457 OFFCURVE",
"1429 1485 CURVE",
"1432 1502 OFFCURVE",
"1442 1525 OFFCURVE",
"1457 1545 CURVE",
"1466 1567 OFFCURVE",
"1481 1582 OFFCURVE",
"1507 1594 CURVE SMOOTH",
"1528 1614 OFFCURVE",
"1557 1622 OFFCURVE",
"1591 1626 CURVE SMOOTH",
"1628 1628 OFFCURVE",
"1668 1620 OFFCURVE",
"1701 1592 CURVE SMOOTH",
"1722 1579 OFFCURVE",
"1740 1565 OFFCURVE",
"1752 1547 CURVE",
"1771 1518 OFFCURVE",
"1786 1476 OFFCURVE",
"1786 1439 CURVE",
"1786 1439 OFFCURVE",
"1788 1417 OFFCURVE",
"1786 1406 CURVE SMOOTH",
"1781 1390 OFFCURVE",
"1786 1406 OFFCURVE",
"1786 1406 CURVE",
"1778 1377 OFFCURVE",
"1768 1351 OFFCURVE",
"1752 1328 CURVE",
"1736 1312 OFFCURVE",
"1721 1298 OFFCURVE",
"1697 1279 CURVE",
"1682 1272 OFFCURVE",
"1665 1267 OFFCURVE",
"1648 1265 CURVE",
"1636 1259 OFFCURVE",
"1618 1259 OFFCURVE",
"1603 1265 CURVE",
"1574 1265 OFFCURVE",
"1547 1272 OFFCURVE",
"1528 1284 CURVE",
"1507 1302 OFFCURVE",
"1481 1319 OFFCURVE",
"1466 1347 CURVE",
"1449 1363 OFFCURVE",
"1442 1385 OFFCURVE",
"1436 1406 CURVE"
);
},
{
closed = 1;
nodes = (
"1110 1406 LINE",
"1110 1406 OFFCURVE",
"1112 1407 OFFCURVE",
"1116 1410 CURVE",
"1202 1466 OFFCURVE",
"1296 1505 OFFCURVE",
"1387 1542 CURVE",
"1387 1498 OFFCURVE",
"1380 1456 OFFCURVE",
"1380 1414 CURVE SMOOTH",
"1380 1406 LINE SMOOTH",
"1380 1398 OFFCURVE",
"1380 1398 OFFCURVE",
"1380 1397 CURVE",
"1383 1359 OFFCURVE",
"1390 1326 OFFCURVE",
"1416 1298 CURVE SMOOTH",
"1481 1203 OFFCURVE",
"1603 1198 OFFCURVE",
"1701 1196 CURVE",
"1638 964 OFFCURVE",
"1429 788 OFFCURVE",
"1193 738 CURVE SMOOTH",
"1104 719 OFFCURVE",
"1008 702 OFFCURVE",
"920 714 CURVE",
"1006 773 OFFCURVE",
"1112 798 OFFCURVE",
"1190 872 CURVE SMOOTH",
"1283 956 OFFCURVE",
"1377 1055 OFFCURVE",
"1377 1186 CURVE",
"1383 1210 OFFCURVE",
"1370 1227 OFFCURVE",
"1343 1237 CURVE",
"1296 1267 OFFCURVE",
"1228 1267 OFFCURVE",
"1177 1237 CURVE",
"1153 1196 OFFCURVE",
"1141 1144 OFFCURVE",
"1138 1097 CURVE",
"1032 1065 OFFCURVE",
"944 1176 OFFCURVE",
"979 1272 CURVE",
"1008 1319 OFFCURVE",
"1053 1363 OFFCURVE",
"1099 1397 CURVE SMOOTH"
);
},
{
closed = 1;
nodes = (
"1581 200 OFFCURVE",
"1613 204 OFFCURVE",
"1636 200 CURVE SMOOTH",
"1658 197 OFFCURVE",
"1680 190 OFFCURVE",
"1699 175 CURVE",
"1722 165 OFFCURVE",
"1740 145 OFFCURVE",
"1752 127 CURVE SMOOTH",
"1769 101 OFFCURVE",
"1776 74 OFFCURVE",
"1778 44 CURVE",
"1781 7 OFFCURVE",
"1771 -38 OFFCURVE",
"1749 -69 CURVE SMOOTH",
"1736 -89 OFFCURVE",
"1721 -106 OFFCURVE",
"1701 -125 CURVE",
"1670 -142 OFFCURVE",
"1633 -156 OFFCURVE",
"1599 -156 CURVE SMOOTH",
"1599 -156 OFFCURVE",
"1569 -156 OFFCURVE",
"1557 -150 CURVE",
"1540 -146 OFFCURVE",
"1557 -150 OFFCURVE",
"1557 -150 CURVE",
"1530 -146 OFFCURVE",
"1507 -135 OFFCURVE",
"1481 -118 CURVE SMOOTH",
"1466 -103 OFFCURVE",
"1448 -86 OFFCURVE",
"1436 -64 CURVE",
"1429 -50 OFFCURVE",
"1420 -36 OFFCURVE",
"1419 -18 CURVE SMOOTH",
"1416 3 OFFCURVE",
"1416 13 OFFCURVE",
"1419 30 CURVE",
"1419 54 OFFCURVE",
"1429 84 OFFCURVE",
"1442 103 CURVE",
"1457 127 OFFCURVE",
"1477 145 OFFCURVE",
"1496 165 CURVE",
"1520 175 OFFCURVE",
"1538 184 OFFCURVE",
"1557 192 CURVE"
);
},
{
closed = 1;
nodes = (
"1557 522 LINE",
"1557 519 OFFCURVE",
"1559 517 OFFCURVE",
"1564 514 CURVE",
"1621 435 OFFCURVE",
"1660 340 OFFCURVE",
"1697 244 CURVE",
"1653 244 OFFCURVE",
"1609 253 OFFCURVE",
"1564 253 CURVE SMOOTH",
"1557 253 LINE SMOOTH",
"1556 253 OFFCURVE",
"1552 253 OFFCURVE",
"1552 253 CURVE",
"1517 251 OFFCURVE",
"1479 239 OFFCURVE",
"1448 214 CURVE",
"1355 145 OFFCURVE",
"1355 30 OFFCURVE",
"1350 -69 CURVE",
"1119 -5 OFFCURVE",
"942 200 OFFCURVE",
"893 437 CURVE SMOOTH",
"876 527 OFFCURVE",
"856 622 OFFCURVE",
"869 714 CURVE",
"923 623 OFFCURVE",
"954 519 OFFCURVE",
"1028 441 CURVE SMOOTH",
"1110 351 OFFCURVE",
"1212 254 OFFCURVE",
"1338 254 CURVE",
"1360 251 OFFCURVE",
"1383 268 OFFCURVE",
"1390 281 CURVE",
"1419 335 OFFCURVE",
"1420 404 OFFCURVE",
"1389 453 CURVE",
"1345 484 OFFCURVE",
"1299 488 OFFCURVE",
"1249 492 CURVE",
"1220 598 OFFCURVE",
"1328 690 OFFCURVE",
"1426 655 CURVE",
"1477 622 OFFCURVE",
"1520 578 OFFCURVE",
"1552 529 CURVE"
);
},
{
closed = 1;
nodes = (
"354 50 OFFCURVE",
"361 25 OFFCURVE",
"354 -5 CURVE SMOOTH",
"351 -30 OFFCURVE",
"342 -47 OFFCURVE",
"332 -67 CURVE",
"318 -87 OFFCURVE",
"302 -106 OFFCURVE",
"280 -125 CURVE",
"255 -135 OFFCURVE",
"229 -145 OFFCURVE",
"202 -146 CURVE",
"160 -150 OFFCURVE",
"116 -142 OFFCURVE",
"84 -118 CURVE SMOOTH",
"64 -103 OFFCURVE",
"45 -87 OFFCURVE",
"34 -67 CURVE SMOOTH",
"15 -38 OFFCURVE",
"0 3 OFFCURVE",
"0 37 CURVE",
"0 37 OFFCURVE",
"0 59 OFFCURVE",
"4 76 CURVE",
"7 89 OFFCURVE",
"4 76 OFFCURVE",
"4 76 CURVE",
"7 99 OFFCURVE",
"19 127 OFFCURVE",
"35 145 CURVE",
"51 166 OFFCURVE",
"73 180 OFFCURVE",
"91 192 CURVE",
"106 200 OFFCURVE",
"121 207 OFFCURVE",
"140 209 CURVE SMOOTH",
"155 214 OFFCURVE",
"167 214 OFFCURVE",
"187 214 CURVE",
"214 209 OFFCURVE",
"237 200 OFFCURVE",
"255 184 CURVE",
"280 174 OFFCURVE",
"302 156 OFFCURVE",
"318 133 CURVE",
"332 115 OFFCURVE",
"342 96 OFFCURVE",
"347 76 CURVE"
);
},
{
closed = 1;
nodes = (
"681 76 LINE",
"677 74 OFFCURVE",
"675 72 OFFCURVE",
"671 72 CURVE",
"585 11 OFFCURVE",
"492 -32 OFFCURVE",
"402 -64 CURVE",
"402 -20 OFFCURVE",
"406 25 OFFCURVE",
"406 66 CURVE SMOOTH",
"406 76 LINE",
"406 76 OFFCURVE",
"406 82 OFFCURVE",
"406 82 CURVE",
"404 118 OFFCURVE",
"392 150 OFFCURVE",
"371 180 CURVE",
"302 272 OFFCURVE",
"187 276 OFFCURVE",
"84 276 CURVE",
"153 512 OFFCURVE",
"354 692 OFFCURVE",
"593 738 CURVE SMOOTH",
"683 759 OFFCURVE",
"775 780 OFFCURVE",
"869 765 CURVE",
"780 708 OFFCURVE",
"677 677 OFFCURVE",
"595 604 CURVE SMOOTH",
"506 522 OFFCURVE",
"412 423 OFFCURVE",
"412 290 CURVE",
"404 268 OFFCURVE",
"421 253 OFFCURVE",
"440 239 CURVE",
"490 209 OFFCURVE",
"558 207 OFFCURVE",
"607 243 CURVE",
"640 280 OFFCURVE",
"642 333 OFFCURVE",
"650 382 CURVE",
"755 411 OFFCURVE",
"846 301 OFFCURVE",
"809 204 CURVE",
"775 158 OFFCURVE",
"733 118 OFFCURVE",
"684 82 CURVE"
);
}
);
width = 1787;
}
);
unicode = F000;
},
{
glyphname = commtrack;
lastChange = "2014-11-05 20:24:38 -0500";
layers = (
{
layerId = "0E8E95BE-A652-47D8-991C-41CDFAEAC62E";
name = Regular;
paths = (
{
closed = 1;
nodes = (
"0 961 LINE",
"325 124 LINE",
"1023 -79 LINE",
"663 830 LINE"
);
},
{
closed = 1;
nodes = (
"1375 1463 LINE",
"1703 608 LINE",
"1112 -14 LINE",
"752 880 LINE"
);
},
{
closed = 1;
nodes = (
"0 1076 LINE",
"564 1576 LINE",
"1285 1510 LINE",
"663 936 LINE"
);
},
{
closed = 1;
nodes = (
"1925 419 OFFCURVE",
"2088 823 OFFCURVE",
"1793 872 CURVE",
"1703 1059 LINE",
"2483 1012 OFFCURVE",
"1966 339 OFFCURVE",
"1629 44 CURVE"
);
},
{
closed = 1;
nodes = (
"2359 700 OFFCURVE",
"2400 1167 OFFCURVE",
"1653 1191 CURVE",
"1524 1510 LINE",
"2893 1397 OFFCURVE",
"2417 584 OFFCURVE",
"1744 19 CURVE"
);
}
);
width = 2402.71;
}
);
unicode = F00F;
},
{
glyphname = dashboard_apps;
lastChange = "2014-11-05 20:21:59 -0500";
layers = (
{
layerId = "0E8E95BE-A652-47D8-991C-41CDFAEAC62E";
name = Regular;
paths = (
{
closed = 1;
nodes = (
"1100 -175 OFFCURVE",
"903 -185 OFFCURVE",
"841 -185 CURVE SMOOTH",
"603 -185 LINE SMOOTH",
"541 -185 OFFCURVE",
"374 -175 OFFCURVE",
"311 -62 CURVE SMOOTH",
"261 44 OFFCURVE",
"240 1578 OFFCURVE",
"240 1578 CURVE",
"240 1629 OFFCURVE",
"311 1703 OFFCURVE",
"374 1703 CURVE",
"374 1703 OFFCURVE",
"519 1753 OFFCURVE",
"748 1753 CURVE SMOOTH",
"966 1753 OFFCURVE",
"1141 1703 OFFCURVE",
"1141 1703 CURVE",
"1195 1703 OFFCURVE",
"1245 1629 OFFCURVE",
"1245 1578 CURVE",
"1245 1578 OFFCURVE",
"1257 44 OFFCURVE",
"1183 -62 CURVE SMOOTH"
);
},
{
closed = 1;
nodes = (
"1122 1546 OFFCURVE",
"1100 1556 OFFCURVE",
"1079 1556 CURVE SMOOTH",
"406 1556 LINE SMOOTH",
"384 1556 OFFCURVE",
"374 1546 OFFCURVE",
"374 1525 CURVE SMOOTH",
"374 687 LINE SMOOTH",
"374 665 OFFCURVE",
"384 655 OFFCURVE",
"406 655 CURVE SMOOTH",
"1079 655 LINE SMOOTH",
"1100 655 OFFCURVE",
"1122 665 OFFCURVE",
"1122 687 CURVE SMOOTH",
"1122 1525 LINE SMOOTH"
);
},
{
closed = 1;
nodes = (
"665 593 OFFCURVE",
"603 571 OFFCURVE",
"603 542 CURVE SMOOTH",
"603 510 OFFCURVE",
"665 480 OFFCURVE",
"738 480 CURVE SMOOTH",
"810 480 OFFCURVE",
"872 510 OFFCURVE",
"872 542 CURVE SMOOTH",
"872 571 OFFCURVE",
"810 593 OFFCURVE",
"738 593 CURVE SMOOTH"
);
},
{
closed = 1;
nodes = (
"954 385 OFFCURVE",
"914 375 OFFCURVE",
"914 364 CURVE SMOOTH",
"903 345 OFFCURVE",
"954 323 OFFCURVE",
"997 323 CURVE SMOOTH",
"1048 323 OFFCURVE",
"1111 364 OFFCURVE",
"1100 385 CURVE",
"1100 385 OFFCURVE",
"1048 406 OFFCURVE",
"997 396 CURVE SMOOTH"
);
},
{
closed = 1;
nodes = (
"954 271 OFFCURVE",
"914 261 OFFCURVE",
"914 250 CURVE SMOOTH",
"903 230 OFFCURVE",
"954 210 OFFCURVE",
"997 210 CURVE SMOOTH",
"1048 210 OFFCURVE",
"1111 250 OFFCURVE",
"1100 271 CURVE",
"1100 271 OFFCURVE",
"1048 292 OFFCURVE",
"997 282 CURVE SMOOTH"
);
},
{
closed = 1;
nodes = (
"954 168 OFFCURVE",
"914 147 OFFCURVE",
"914 136 CURVE SMOOTH",
"903 116 OFFCURVE",
"954 95 OFFCURVE",
"997 95 CURVE SMOOTH",
"1048 95 OFFCURVE",
"1111 136 OFFCURVE",
"1100 157 CURVE",
"1100 157 OFFCURVE",
"1048 188 OFFCURVE",
"997 179 CURVE SMOOTH"
);
},
{
closed = 1;
nodes = (
"954 54 OFFCURVE",
"914 33 OFFCURVE",
"914 22 CURVE SMOOTH",
"903 1 OFFCURVE",
"954 -9 OFFCURVE",
"997 -9 CURVE SMOOTH",
"1048 -9 OFFCURVE",
"1111 22 OFFCURVE",
"1100 54 CURVE",
"1100 54 OFFCURVE",
"1048 73 OFFCURVE",
"997 64 CURVE SMOOTH"
);
},
{
closed = 1;
nodes = (
"696 22 OFFCURVE",
"654 1 OFFCURVE",
"654 -18 CURVE SMOOTH",
"654 -40 OFFCURVE",
"696 -50 OFFCURVE",
"748 -50 CURVE SMOOTH",
"800 -50 OFFCURVE",
"831 -40 OFFCURVE",
"831 -18 CURVE SMOOTH",
"831 1 OFFCURVE",
"800 22 OFFCURVE",
"748 22 CURVE SMOOTH"
);
},
{
closed = 1;
nodes = (
"696 375 OFFCURVE",
"654 354 OFFCURVE",
"654 333 CURVE SMOOTH",
"654 313 OFFCURVE",
"696 292 OFFCURVE",
"748 292 CURVE SMOOTH",
"800 292 OFFCURVE",
"831 313 OFFCURVE",
"831 333 CURVE SMOOTH",
"831 354 OFFCURVE",
"800 375 OFFCURVE",
"748 375 CURVE SMOOTH"
);
},
{
closed = 1;
nodes = (
"696 250 OFFCURVE",
"654 240 OFFCURVE",
"654 219 CURVE SMOOTH",
"654 199 OFFCURVE",
"696 179 OFFCURVE",
"748 179 CURVE SMOOTH",
"800 179 OFFCURVE",
"831 199 OFFCURVE",
"831 219 CURVE SMOOTH",
"831 240 OFFCURVE",
"800 250 OFFCURVE",
"748 250 CURVE SMOOTH"
);
},
{
closed = 1;
nodes = (
"696 136 OFFCURVE",
"654 116 OFFCURVE",
"654 95 CURVE SMOOTH",
"654 73 OFFCURVE",
"696 64 OFFCURVE",
"748 64 CURVE SMOOTH",
"800 64 OFFCURVE",
"831 73 OFFCURVE",
"831 95 CURVE SMOOTH",
"831 116 OFFCURVE",
"800 136 OFFCURVE",
"748 136 CURVE SMOOTH"
);
},
{
closed = 1;
nodes = (
"374 364 OFFCURVE",
"436 323 OFFCURVE",
"489 323 CURVE SMOOTH",
"541 323 OFFCURVE",
"581 345 OFFCURVE",
"581 364 CURVE SMOOTH",
"571 375 OFFCURVE",
"541 385 OFFCURVE",
"489 396 CURVE SMOOTH",
"446 406 OFFCURVE",
"395 385 OFFCURVE",
"395 385 CURVE"
);
},
{
closed = 1;
nodes = (
"374 250 OFFCURVE",
"436 210 OFFCURVE",
"489 210 CURVE SMOOTH",
"541 210 OFFCURVE",
"581 230 OFFCURVE",
"581 250 CURVE SMOOTH",
"571 261 OFFCURVE",
"541 271 OFFCURVE",
"489 282 CURVE SMOOTH",
"446 292 OFFCURVE",
"395 271 OFFCURVE",
"395 271 CURVE"
);
},
{
closed = 1;
nodes = (
"374 136 OFFCURVE",
"436 95 OFFCURVE",
"489 95 CURVE SMOOTH",
"541 95 OFFCURVE",
"581 116 OFFCURVE",
"581 136 CURVE SMOOTH",
"571 147 OFFCURVE",
"541 168 OFFCURVE",
"489 179 CURVE SMOOTH",
"446 188 OFFCURVE",
"395 157 OFFCURVE",
"395 157 CURVE"
);
},
{
closed = 1;
nodes = (
"374 22 OFFCURVE",
"436 -9 OFFCURVE",
"489 -9 CURVE SMOOTH",
"541 -9 OFFCURVE",
"581 1 OFFCURVE",
"581 22 CURVE SMOOTH",
"571 33 OFFCURVE",
"541 54 OFFCURVE",
"489 64 CURVE SMOOTH",
"446 73 OFFCURVE",
"395 54 OFFCURVE",
"395 54 CURVE"
);
}
);
width = 1485.72;
}
);
unicode = F00E;
},
{
glyphname = dashboard_data;
lastChange = "2014-11-05 20:36:53 -0500";
layers = (
{
layerId = "0E8E95BE-A652-47D8-991C-41CDFAEAC62E";
name = Regular;
paths = (
{
closed = 1;
nodes = (
"0 -101 LINE",
"0 1689 LINE",
"193 1689 LINE",
"193 93 LINE",
"1724 93 LINE",
"1724 -101 LINE"
);
},
{
closed = 1;
nodes = (
"1153 662 LINE",
"1153 205 LINE",
"781 205 LINE",
"781 662 LINE"
);
},
{
closed = 1;
nodes = (
"670 975 LINE",
"670 205 LINE",
"308 205 LINE",
"308 975 LINE"
);
},
{
closed = 1;
nodes = (
"1607 1600 LINE",
"1607 205 LINE",
"1245 205 LINE",
"1245 1600 LINE"
);
}
);
width = 1724;
}
);
unicode = F013;
},
{
glyphname = dashboard_exchange;
lastChange = "2014-11-05 21:20:57 -0500";
layers = (
{
layerId = "0E8E95BE-A652-47D8-991C-41CDFAEAC62E";
name = Regular;
paths = (
{
closed = 1;
nodes = (
"557 618 OFFCURVE",
"564 621 OFFCURVE",
"569 626 CURVE SMOOTH",
"856 913 LINE SMOOTH",
"866 923 OFFCURVE",
"866 939 OFFCURVE",
"856 949 CURVE SMOOTH",
"569 1237 LINE SMOOTH",
"564 1242 OFFCURVE",
"558 1245 OFFCURVE",
"551 1245 CURVE SMOOTH",
"534 1245 LINE SMOOTH",
"523 1245 OFFCURVE",
"496 1234 OFFCURVE",
"496 1204 CURVE SMOOTH",
"496 1174 OFFCURVE",
"535 1027 OFFCURVE",
"535 1027 CURVE SMOOTH",
"258 1027 LINE SMOOTH",
"78 1027 OFFCURVE",
"0 901 OFFCURVE",
"0 746 CURVE SMOOTH",
"0 680 LINE",
"0 157 LINE SMOOTH",
"0 -22 OFFCURVE",
"126 -101 OFFCURVE",
"282 -101 CURVE SMOOTH",
"1510 -101 LINE SMOOTH",
"1665 -101 OFFCURVE",
"1753 14 OFFCURVE",
"1753 311 CURVE",
"1753 311 OFFCURVE",
"1737 313 OFFCURVE",
"1657 313 CURVE SMOOTH",
"1577 313 OFFCURVE",
"1562 225 OFFCURVE",
"1562 225 CURVE",
"1562 153 OFFCURVE",
"1539 91 OFFCURVE",
"1490 91 CURVE SMOOTH",
"310 91 LINE SMOOTH",
"262 91 OFFCURVE",
"191 125 OFFCURVE",
"191 196 CURVE SMOOTH",
"191 717 LINE SMOOTH",
"191 765 OFFCURVE",
"225 836 OFFCURVE",
"296 836 CURVE SMOOTH",
"525 835 LINE",
"525 835 OFFCURVE",
"496 688 OFFCURVE",
"496 659 CURVE SMOOTH",
"496 629 OFFCURVE",
"523 618 OFFCURVE",
"534 618 CURVE SMOOTH",
"551 618 LINE SMOOTH",
"558 618 OFFCURVE",
"564 621 OFFCURVE",
"569 626 CURVE",
"551 618 LINE"
);
},
{
closed = 1;
nodes = (
"1195 971 OFFCURVE",
"1189 968 OFFCURVE",
"1184 963 CURVE SMOOTH",
"897 676 LINE SMOOTH",
"887 666 OFFCURVE",
"887 649 OFFCURVE",
"897 640 CURVE SMOOTH",
"1184 352 LINE SMOOTH",
"1189 347 OFFCURVE",
"1195 344 OFFCURVE",
"1202 344 CURVE SMOOTH",
"1219 344 LINE SMOOTH",
"1229 344 OFFCURVE",
"1257 355 OFFCURVE",
"1257 385 CURVE SMOOTH",
"1257 414 OFFCURVE",
"1218 561 OFFCURVE",
"1218 561 CURVE",
"1495 561 LINE SMOOTH",
"1674 561 OFFCURVE",
"1753 688 OFFCURVE",
"1753 843 CURVE SMOOTH",
"1753 909 LINE",
"1753 1431 LINE SMOOTH",
"1753 1611 OFFCURVE",
"1627 1689 OFFCURVE",
"1471 1689 CURVE SMOOTH",
"243 1689 LINE SMOOTH",
"88 1689 OFFCURVE",
"0 1594 OFFCURVE",
"0 1287 CURVE",
"0 1287 OFFCURVE",
"16 1275 OFFCURVE",
"96 1275 CURVE SMOOTH",
"176 1275 OFFCURVE",
"191 1364 OFFCURVE",
"191 1364 CURVE",
"191 1435 OFFCURVE",
"214 1498 OFFCURVE",
"262 1498 CURVE SMOOTH",
"1442 1498 LINE SMOOTH",
"1490 1498 OFFCURVE",
"1562 1464 OFFCURVE",
"1562 1393 CURVE SMOOTH",
"1562 872 LINE SMOOTH",
"1562 824 OFFCURVE",
"1528 753 OFFCURVE",
"1457 753 CURVE SMOOTH",
"1228 754 LINE SMOOTH",
"1228 754 OFFCURVE",
"1257 901 OFFCURVE",
"1257 930 CURVE SMOOTH",
"1257 960 OFFCURVE",
"1229 971 OFFCURVE",
"1219 971 CURVE SMOOTH",
"1202 971 LINE SMOOTH",
"1195 971 OFFCURVE",
"1189 968 OFFCURVE",
"1184 963 CURVE",
"1202 971 LINE"
);
}
);
width = 1753;
}
);
unicode = F017;
},
{
glyphname = dashboard_help;
lastChange = "2014-11-05 21:17:56 -0500";
layers = (
{
layerId = "0E8E95BE-A652-47D8-991C-41CDFAEAC62E";
name = Regular;
paths = (
{
closed = 1;
nodes = (
"1283 1498 OFFCURVE",
"1599 1182 OFFCURVE",
"1599 794 CURVE SMOOTH",
"1599 406 OFFCURVE",
"1283 90 OFFCURVE",
"895 90 CURVE SMOOTH",
"507 90 OFFCURVE",
"191 406 OFFCURVE",
"191 794 CURVE SMOOTH",
"191 1182 OFFCURVE",
"507 1498 OFFCURVE",
"895 1498 CURVE SMOOTH"
);
},
{
closed = 1;
nodes = (
"401 1689 OFFCURVE",
"0 1289 OFFCURVE",
"0 794 CURVE SMOOTH",
"0 300 OFFCURVE",
"401 -101 OFFCURVE",
"895 -101 CURVE SMOOTH",
"1389 -101 OFFCURVE",
"1790 300 OFFCURVE",
"1790 794 CURVE SMOOTH",
"1790 1289 OFFCURVE",
"1389 1689 OFFCURVE",
"895 1689 CURVE SMOOTH"
);
},
{
closed = 1;
nodes = (
"786 684 OFFCURVE",
"790 708 OFFCURVE",
"798 728 CURVE SMOOTH",
"805 748 OFFCURVE",
"818 767 OFFCURVE",
"836 784 CURVE SMOOTH",
"863 810 OFFCURVE",
"888 832 OFFCURVE",
"910 851 CURVE SMOOTH",
"932 871 OFFCURVE",
"952 888 OFFCURVE",
"968 905 CURVE SMOOTH",
"984 922 OFFCURVE",
"997 938 OFFCURVE",
"1006 952 CURVE SMOOTH",
"1015 967 OFFCURVE",
"1020 983 OFFCURVE",
"1020 999 CURVE SMOOTH",
"1020 1030 OFFCURVE",
"1010 1055 OFFCURVE",
"990 1073 CURVE SMOOTH",
"971 1090 OFFCURVE",
"946 1099 OFFCURVE",
"917 1099 CURVE SMOOTH",
"872 1099 OFFCURVE",
"838 1087 OFFCURVE",
"814 1062 CURVE SMOOTH",
"791 1037 OFFCURVE",
"778 1007 OFFCURVE",
"775 972 CURVE",
"554 986 LINE",
"565 1087 OFFCURVE",
"602 1164 OFFCURVE",
"666 1217 CURVE SMOOTH",
"730 1270 OFFCURVE",
"812 1297 OFFCURVE",
"912 1297 CURVE SMOOTH",
"956 1297 OFFCURVE",
"997 1291 OFFCURVE",
"1036 1279 CURVE SMOOTH",
"1075 1267 OFFCURVE",
"1109 1249 OFFCURVE",
"1138 1225 CURVE SMOOTH",
"1168 1201 OFFCURVE",
"1191 1172 OFFCURVE",
"1208 1136 CURVE SMOOTH",
"1226 1101 OFFCURVE",
"1234 1060 OFFCURVE",
"1234 1015 CURVE SMOOTH",
"1234 987 OFFCURVE",
"1231 962 OFFCURVE",
"1226 939 CURVE SMOOTH",
"1220 917 OFFCURVE",
"1210 895 OFFCURVE",
"1196 873 CURVE SMOOTH",
"1182 851 OFFCURVE",
"1164 829 OFFCURVE",
"1142 806 CURVE SMOOTH",
"1120 784 OFFCURVE",
"1091 759 OFFCURVE",
"1057 733 CURVE SMOOTH",
"1035 715 OFFCURVE",
"1020 699 OFFCURVE",
"1012 683 CURVE SMOOTH",
"1005 666 OFFCURVE",
"1001 650 OFFCURVE",
"1001 634 CURVE SMOOTH",
"1001 592 LINE",
"786 592 LINE",
"786 655 LINE SMOOTH"
);
},
{
closed = 1;
nodes = (
"762 399 OFFCURVE",
"765 416 OFFCURVE",
"772 432 CURVE SMOOTH",
"779 448 OFFCURVE",
"788 462 OFFCURVE",
"800 474 CURVE SMOOTH",
"812 486 OFFCURVE",
"826 496 OFFCURVE",
"842 502 CURVE SMOOTH",
"858 509 OFFCURVE",
"875 512 OFFCURVE",
"894 512 CURVE SMOOTH",
"912 512 OFFCURVE",
"929 509 OFFCURVE",
"945 502 CURVE SMOOTH",
"961 496 OFFCURVE",
"975 486 OFFCURVE",
"987 474 CURVE SMOOTH",
"999 462 OFFCURVE",
"1009 448 OFFCURVE",
"1015 432 CURVE SMOOTH",
"1022 416 OFFCURVE",
"1025 399 OFFCURVE",
"1025 381 CURVE SMOOTH",
"1025 362 OFFCURVE",
"1022 345 OFFCURVE",
"1015 329 CURVE SMOOTH",
"1009 313 OFFCURVE",
"999 299 OFFCURVE",
"987 287 CURVE SMOOTH",
"975 275 OFFCURVE",
"961 266 OFFCURVE",
"945 259 CURVE SMOOTH",
"929 252 OFFCURVE",
"912 249 OFFCURVE",
"894 249 CURVE SMOOTH",
"875 249 OFFCURVE",
"858 252 OFFCURVE",
"842 259 CURVE SMOOTH",
"826 266 OFFCURVE",
"812 275 OFFCURVE",
"800 287 CURVE SMOOTH",
"788 299 OFFCURVE",
"779 313 OFFCURVE",
"772 329 CURVE SMOOTH",
"765 345 OFFCURVE",
"762 362 OFFCURVE",
"762 381 CURVE SMOOTH"
);
}
);
width = 1790;
}
);
unicode = F016;
},
{
glyphname = dashboard_messaging;
lastChange = "2014-11-05 21:33:11 -0500";
layers = (
{
layerId = "0E8E95BE-A652-47D8-991C-41CDFAEAC62E";
name = Regular;
paths = (
{
closed = 1;
nodes = (
"282 105 LINE SMOOTH",
"127 105 OFFCURVE",
"0 184 OFFCURVE",
"0 364 CURVE SMOOTH",
"0 602 LINE",
"0 991 LINE",
"0 1332 LINE SMOOTH",
"0 1511 OFFCURVE",
"127 1590 OFFCURVE",
"282 1590 CURVE SMOOTH",
"848 1590 LINE",
"1075 1590 LINE",
"1569 1590 LINE SMOOTH",
"1725 1590 OFFCURVE",
"1851 1511 OFFCURVE",
"1851 1332 CURVE SMOOTH",
"1851 991 LINE",
"1851 602 LINE",
"1851 364 LINE SMOOTH",
"1851 184 OFFCURVE",
"1725 105 OFFCURVE",
"1569 105 CURVE SMOOTH",
"1137 105 LINE",
"1102 105 LINE SMOOTH",
"1102 105 OFFCURVE",
"1089 84 OFFCURVE",
"1081 74 CURVE SMOOTH",
"965 -83 OFFCURVE",
"660 -197 OFFCURVE",
"646 -202 CURVE",
"627 -168 LINE",
"629 -167 OFFCURVE",
"774 -54 OFFCURVE",
"774 81 CURVE SMOOTH",
"774 89 OFFCURVE",
"773 97 OFFCURVE",
"771 105 CURVE"
);
},
{
closed = 1;
nodes = (
"1660 1293 LINE SMOOTH",
"1660 1364 OFFCURVE",
"1588 1398 OFFCURVE",
"1540 1398 CURVE SMOOTH",
"985 1398 LINE",
"938 1398 LINE",
"311 1398 LINE SMOOTH",
"263 1398 OFFCURVE",
"192 1364 OFFCURVE",
"192 1293 CURVE SMOOTH",
"192 986 LINE",
"192 607 LINE",
"192 402 LINE SMOOTH",
"192 331 OFFCURVE",
"263 297 OFFCURVE",
"311 297 CURVE SMOOTH",
"938 297 LINE",
"985 297 LINE",
"1540 297 LINE SMOOTH",
"1588 297 OFFCURVE",
"1660 331 OFFCURVE",
"1660 402 CURVE",
"1660 607 LINE",
"1660 986 LINE"
);
}
);
width = 1851;
}
);
unicode = F018;
},
{
glyphname = dashboard_reports;
lastChange = "2014-11-05 20:34:56 -0500";
layers = (
{
layerId = "0E8E95BE-A652-47D8-991C-41CDFAEAC62E";
name = Regular;
paths = (
{
closed = 1;
nodes = (
"0 -101 LINE",
"0 1689 LINE",
"192 1689 LINE",
"192 91 LINE",
"1729 91 LINE",
"1729 -101 LINE"
);
},
{
closed = 1;
nodes = (
"1406 1103 LINE",
"1102 749 LINE",
"769 1012 LINE",
"283 455 LINE",
"405 344 LINE",
"789 789 LINE",
"1123 526 LINE",
"1527 1012 LINE",
"1669 900 LINE",
"1669 1315 LINE",
"1254 1214 LINE"
);
}
);
width = 1729;
}
);
unicode = F012;
},
{
glyphname = dashboard_settings;
lastChange = "2014-11-05 21:15:45 -0500";
layers = (
{
layerId = "0E8E95BE-A652-47D8-991C-41CDFAEAC62E";
name = Regular;
paths = (
{
closed = 1;
nodes = (
"1524 597 LINE",
"1524 597 OFFCURVE",
"1522 597 OFFCURVE",
"1522 599 CURVE",
"1538 659 OFFCURVE",
"1548 721 OFFCURVE",
"1548 785 CURVE SMOOTH",
"1548 857 OFFCURVE",
"1538 925 OFFCURVE",
"1518 988 CURVE",
"1660 1134 LINE",
"1676 1144 OFFCURVE",
"1680 1166 OFFCURVE",
"1670 1182 CURVE SMOOTH",
"1552 1368 LINE SMOOTH",
"1542 1384 OFFCURVE",
"1520 1388 OFFCURVE",
"1504 1378 CURVE",
"1306 1310 LINE",
"1231 1376 OFFCURVE",
"1143 1426 OFFCURVE",
"1043 1454 CURVE",
"995 1657 LINE",
"995 1675 OFFCURVE",
"979 1691 OFFCURVE",
"959 1691 CURVE SMOOTH",
"739 1691 LINE SMOOTH",
"719 1691 OFFCURVE",
"705 1675 OFFCURVE",
"705 1657 CURVE",
"658 1454 LINE",
"556 1424 OFFCURVE",
"464 1372 OFFCURVE",
"386 1304 CURVE",
"384 1306 LINE",
"170 1378 LINE",
"154 1388 OFFCURVE",
"132 1382 OFFCURVE",
"122 1366 CURVE SMOOTH",
"7 1180 LINE SMOOTH",
"-3 1164 OFFCURVE",
"1 1142 OFFCURVE",
"19 1132 CURVE",
"176 972 LINE",
"176 972 OFFCURVE",
"178 972 OFFCURVE",
"178 970 CURVE",
"162 911 OFFCURVE",
"152 849 OFFCURVE",
"152 785 CURVE SMOOTH",
"152 719 OFFCURVE",
"162 655 OFFCURVE",
"180 593 CURVE",
"43 451 LINE",
"27 441 OFFCURVE",
"23 419 OFFCURVE",
"33 403 CURVE SMOOTH",
"150 218 LINE SMOOTH",
"160 202 OFFCURVE",
"182 198 OFFCURVE",
"198 208 CURVE",
"382 272 LINE",
"462 200 OFFCURVE",
"556 146 OFFCURVE",
"662 116 CURVE",
"705 -70 LINE",
"705 -90 OFFCURVE",
"721 -104 OFFCURVE",
"739 -104 CURVE SMOOTH",
"959 -104 LINE SMOOTH",
"979 -104 OFFCURVE",
"993 -88 OFFCURVE",
"993 -70 CURVE",
"1037 118 LINE",
"1141 148 OFFCURVE",
"1235 200 OFFCURVE",
"1312 270 CURVE",
"1314 268 LINE",
"1528 196 LINE",
"1544 186 OFFCURVE",
"1566 190 OFFCURVE",
"1576 208 CURVE",
"1692 393 LINE",
"1702 405 OFFCURVE",
"1698 427 OFFCURVE",
"1682 437 CURVE"
);
},
{
closed = 1;
nodes = (
"357 1051 OFFCURVE",
"579 1273 OFFCURVE",
"851 1273 CURVE SMOOTH",
"1123 1273 OFFCURVE",
"1345 1051 OFFCURVE",
"1345 779 CURVE SMOOTH",
"1345 507 OFFCURVE",
"1123 285 OFFCURVE",
"851 285 CURVE SMOOTH",
"579 285 OFFCURVE",
"357 504 OFFCURVE",
"357 779 CURVE SMOOTH"
);
}
);
width = 1698.45;
}
);
unicode = F015;
},
{
glyphname = dashboard_users;
lastChange = "2014-11-05 20:57:30 -0500";
layers = (
{
layerId = "0E8E95BE-A652-47D8-991C-41CDFAEAC62E";
name = Regular;
paths = (
{
closed = 1;
nodes = (
"749 653 LINE SMOOTH",
"714 684 OFFCURVE",
"694 732 OFFCURVE",
"691 767 CURVE SMOOTH",
"690 776 OFFCURVE",
"688 800 OFFCURVE",
"693 815 CURVE SMOOTH",
"698 831 OFFCURVE",
"716 852 OFFCURVE",
"724 860 CURVE SMOOTH",
"737 874 OFFCURVE",
"752 894 OFFCURVE",
"765 917 CURVE SMOOTH",
"783 946 LINE",
"802 917 LINE SMOOTH",
"812 902 OFFCURVE",
"823 887 OFFCURVE",
"834 873 CURVE SMOOTH",
"843 860 LINE",
"835 847 LINE SMOOTH",
"821 827 OFFCURVE",
"807 809 OFFCURVE",
"795 796 CURVE SMOOTH",
"792 793 OFFCURVE",
"789 789 OFFCURVE",
"786 785 CURVE",
"786 782 OFFCURVE",
"786 778 OFFCURVE",
"786 776 CURVE SMOOTH",
"788 757 OFFCURVE",
"803 730 OFFCURVE",
"815 723 CURVE SMOOTH",
"817 722 OFFCURVE",
"821 720 OFFCURVE",
"824 719 CURVE SMOOTH",
"850 706 LINE",
"831 684 LINE SMOOTH",
"826 678 OFFCURVE",
"820 674 OFFCURVE",
"815 671 CURVE SMOOTH",
"805 665 OFFCURVE",
"791 658 OFFCURVE",
"772 650 CURVE SMOOTH",
"759 645 LINE"
);
},
{
closed = 1;
nodes = (
"696 1549 LINE",
"664 1549 LINE",
"661 1549 LINE",
"660 1549 LINE",
"659 1549 LINE",
"633 1549 LINE",
"601 1548 LINE",
"601 1543 LINE",
"537 1528 OFFCURVE",
"506 1512 OFFCURVE",
"455 1443 CURVE SMOOTH",
"331 1276 OFFCURVE",
"395 1019 OFFCURVE",
"403 990 CURVE SMOOTH",
"426 906 OFFCURVE",
"477 828 OFFCURVE",
"514 788 CURVE SMOOTH",
"515 787 OFFCURVE",
"517 784 OFFCURVE",
"520 782 CURVE",
"520 780 OFFCURVE",
"520 778 OFFCURVE",
"520 777 CURVE SMOOTH",
"518 761 OFFCURVE",
"504 737 OFFCURVE",
"496 733 CURVE SMOOTH",
"468 716 OFFCURVE",
"373 681 OFFCURVE",
"303 655 CURVE SMOOTH",
"196 615 OFFCURVE",
"151 598 OFFCURVE",
"130 584 CURVE SMOOTH",
"82 552 OFFCURVE",
"53 512 OFFCURVE",
"31 451 CURVE SMOOTH",
"14 403 OFFCURVE",
"5 255 OFFCURVE",
"1 139 CURVE SMOOTH",
"0 135 LINE",
"0 130 LINE",
"0 124 LINE",
"2 117 LINE",
"4 112 LINE SMOOTH",
"9 97 OFFCURVE",
"-45 104 OFFCURVE",
"169 28 CURVE SMOOTH",
"215 11 LINE",
"212 60 LINE",
"210 114 LINE",
"209 137 LINE",
"187 144 LINE SMOOTH",
"140 158 OFFCURVE",
"147 151 OFFCURVE",
"120 161 CURVE",
"120 166 OFFCURVE",
"120 170 OFFCURVE",
"120 175 CURVE SMOOTH",
"123 233 OFFCURVE",
"132 385 OFFCURVE",
"141 411 CURVE SMOOTH",
"156 454 OFFCURVE",
"172 471 OFFCURVE",
"196 486 CURVE SMOOTH",
"209 495 OFFCURVE",
"293 526 OFFCURVE",
"344 545 CURVE SMOOTH",
"429 577 OFFCURVE",
"518 610 OFFCURVE",
"554 631 CURVE SMOOTH",
"602 658 OFFCURVE",
"632 719 OFFCURVE",
"636 766 CURVE SMOOTH",
"636 766 LINE",
"636 766 LINE SMOOTH",
"638 782 OFFCURVE",
"638 803 OFFCURVE",
"634 818 CURVE SMOOTH",
"631 828 OFFCURVE",
"625 839 OFFCURVE",
"618 849 CURVE SMOOTH",
"617 850 LINE",
"616 851 LINE",
"614 853 LINE",
"613 854 LINE",
"613 855 LINE SMOOTH",
"610 857 OFFCURVE",
"606 862 OFFCURVE",
"603 865 CURVE SMOOTH",
"602 866 OFFCURVE",
"601 867 OFFCURVE",
"600 868 CURVE SMOOTH",
"570 901 OFFCURVE",
"532 964 OFFCURVE",
"516 1021 CURVE SMOOTH",
"495 1099 OFFCURVE",
"475 1274 OFFCURVE",
"549 1373 CURVE SMOOTH",
"588 1425 OFFCURVE",
"578 1428 OFFCURVE",
"661 1431 CURVE SMOOTH",
"662 1431 LINE",
"662 1431 LINE",
"664 1431 LINE",
"668 1431 LINE",
"688 1430 LINE",
"698 1448 LINE",
"725 1499 LINE",
"728 1506 LINE",
"728 1514 LINE",
"728 1516 LINE",
"728 1549 LINE"
);
},
{
closed = 1;
nodes = (
"893 851 OFFCURVE",
"904 838 OFFCURVE",
"908 826 CURVE SMOOTH",
"925 776 OFFCURVE",
"874 669 OFFCURVE",
"830 644 CURVE SMOOTH",
"788 620 OFFCURVE",
"678 579 OFFCURVE",
"573 540 CURVE SMOOTH",
"489 509 OFFCURVE",
"394 473 OFFCURVE",
"376 461 CURVE SMOOTH",
"339 437 OFFCURVE",
"312 409 OFFCURVE",
"289 343 CURVE SMOOTH",
"269 287 OFFCURVE",
"259 45 OFFCURVE",
"257 10 CURVE",
"273 -5 OFFCURVE",
"398 -101 OFFCURVE",
"1083 -101 CURVE SMOOTH",
"1750 -101 OFFCURVE",
"1887 -8 OFFCURVE",
"1910 12 CURVE",
"1907 49 OFFCURVE",
"1897 288 OFFCURVE",
"1878 343 CURVE SMOOTH",
"1854 409 OFFCURVE",
"1827 437 OFFCURVE",
"1791 461 CURVE SMOOTH",
"1772 473 OFFCURVE",
"1678 509 OFFCURVE",
"1594 540 CURVE SMOOTH",
"1488 579 OFFCURVE",
"1379 620 OFFCURVE",
"1336 644 CURVE SMOOTH",
"1286 673 OFFCURVE",
"1256 781 OFFCURVE",
"1257 818 CURVE SMOOTH",
"1257 829 OFFCURVE",
"1262 839 OFFCURVE",
"1290 869 CURVE SMOOTH",
"1330 913 OFFCURVE",
"1384 999 OFFCURVE",
"1406 1081 CURVE SMOOTH",
"1437 1196 OFFCURVE",
"1461 1427 OFFCURVE",
"1357 1566 CURVE SMOOTH",
"1300 1644 OFFCURVE",
"1210 1685 OFFCURVE",
"1089 1688 CURVE SMOOTH",
"1082 1689 LINE",
"1078 1688 LINE SMOOTH",
"957 1685 OFFCURVE",
"867 1644 OFFCURVE",
"809 1566 CURVE SMOOTH",
"705 1427 OFFCURVE",
"729 1196 OFFCURVE",
"760 1081 CURVE SMOOTH",
"782 999 OFFCURVE",
"836 913 OFFCURVE",
"876 869 CURVE SMOOTH"
);
},
{
closed = 1;
nodes = (
"1393 654 LINE SMOOTH",
"1374 663 OFFCURVE",
"1360 669 OFFCURVE",
"1350 675 CURVE SMOOTH",
"1345 678 OFFCURVE",
"1340 682 OFFCURVE",
"1335 687 CURVE SMOOTH",
"1321 703 LINE",
"1341 713 LINE SMOOTH",
"1345 715 OFFCURVE",
"1348 716 OFFCURVE",
"1350 718 CURVE SMOOTH",
"1364 726 OFFCURVE",
"1380 754 OFFCURVE",
"1382 775 CURVE SMOOTH",
"1382 778 OFFCURVE",
"1382 782 OFFCURVE",
"1382 786 CURVE",
"1379 790 OFFCURVE",
"1375 796 OFFCURVE",
"1372 799 CURVE SMOOTH",
"1359 812 OFFCURVE",
"1346 830 OFFCURVE",
"1332 850 CURVE SMOOTH",
"1326 860 LINE",
"1333 869 LINE SMOOTH",
"1344 883 OFFCURVE",
"1355 898 OFFCURVE",
"1365 914 CURVE SMOOTH",
"1379 935 LINE",
"1392 913 LINE SMOOTH",
"1406 891 OFFCURVE",
"1421 870 OFFCURVE",
"1434 856 CURVE SMOOTH",
"1440 850 OFFCURVE",
"1459 828 OFFCURVE",
"1464 813 CURVE SMOOTH",
"1469 798 OFFCURVE",
"1467 774 OFFCURVE",
"1466 767 CURVE SMOOTH",
"1463 733 OFFCURVE",
"1444 686 OFFCURVE",
"1410 657 CURVE SMOOTH",
"1402 650 LINE"
);
},
{
closed = 1;
nodes = (
"1429 1516 LINE",
"1429 1514 LINE",
"1429 1506 LINE",
"1433 1499 LINE",
"1460 1448 LINE",
"1469 1430 LINE",
"1490 1431 LINE",
"1493 1431 LINE",
"1495 1431 LINE",
"1496 1431 LINE",
"1496 1431 LINE SMOOTH",
"1580 1428 OFFCURVE",
"1570 1425 OFFCURVE",
"1608 1373 CURVE SMOOTH",
"1682 1274 OFFCURVE",
"1662 1099 OFFCURVE",
"1641 1021 CURVE SMOOTH",
"1626 964 OFFCURVE",
"1587 901 OFFCURVE",
"1557 868 CURVE SMOOTH",
"1557 867 OFFCURVE",
"1556 866 OFFCURVE",
"1555 865 CURVE SMOOTH",
"1552 862 OFFCURVE",
"1547 857 OFFCURVE",
"1545 855 CURVE SMOOTH",
"1544 854 LINE",
"1544 853 LINE",
"1541 851 LINE",
"1541 850 LINE",
"1540 849 LINE SMOOTH",
"1532 839 OFFCURVE",
"1527 828 OFFCURVE",
"1524 818 CURVE SMOOTH",
"1519 803 OFFCURVE",
"1520 782 OFFCURVE",
"1521 766 CURVE SMOOTH",
"1521 766 LINE",
"1521 766 LINE SMOOTH",
"1526 719 OFFCURVE",
"1555 658 OFFCURVE",
"1603 631 CURVE SMOOTH",
"1640 610 OFFCURVE",
"1728 577 OFFCURVE",
"1813 545 CURVE SMOOTH",
"1864 526 OFFCURVE",
"1949 495 OFFCURVE",
"1962 486 CURVE SMOOTH",
"1985 471 OFFCURVE",
"2001 454 OFFCURVE",
"2016 411 CURVE SMOOTH",
"2026 385 OFFCURVE",
"2034 233 OFFCURVE",
"2037 175 CURVE SMOOTH",
"2037 170 OFFCURVE",
"2038 166 OFFCURVE",
"2038 161 CURVE",
"2011 151 OFFCURVE",
"2017 158 OFFCURVE",
"1970 144 CURVE SMOOTH",
"1948 137 LINE",
"1947 114 LINE",
"1945 60 LINE",
"1943 11 LINE",
"1989 28 LINE SMOOTH",
"2202 104 OFFCURVE",
"2148 97 OFFCURVE",
"2154 112 CURVE SMOOTH",
"2155 117 LINE",
"2158 124 LINE",
"2157 130 LINE",
"2157 136 LINE",
"2157 139 LINE SMOOTH",
"2153 255 OFFCURVE",
"2144 403 OFFCURVE",
"2127 451 CURVE SMOOTH",
"2105 512 OFFCURVE",
"2075 552 OFFCURVE",
"2027 584 CURVE SMOOTH",
"2007 598 OFFCURVE",
"1961 615 OFFCURVE",
"1854 655 CURVE SMOOTH",
"1785 681 OFFCURVE",
"1690 716 OFFCURVE",
"1661 733 CURVE SMOOTH",
"1653 737 OFFCURVE",
"1640 761 OFFCURVE",
"1638 777 CURVE SMOOTH",
"1638 778 OFFCURVE",
"1638 780 OFFCURVE",
"1638 782 CURVE",
"1640 784 OFFCURVE",
"1642 787 OFFCURVE",
"1643 788 CURVE SMOOTH",
"1680 828 OFFCURVE",
"1732 906 OFFCURVE",
"1754 990 CURVE SMOOTH",
"1762 1019 OFFCURVE",
"1826 1276 OFFCURVE",
"1702 1443 CURVE",
"1660 1490 OFFCURVE",
"1600 1535 OFFCURVE",
"1557 1543 CURVE",
"1557 1548 LINE",
"1524 1549 LINE",
"1498 1549 LINE",
"1497 1549 LINE",
"1496 1549 LINE",
"1493 1549 LINE",
"1462 1549 LINE",
"1429 1549 LINE"
);
}
);
width = 2158;
}
);
unicode = F014;
},
{
glyphname = qtyle_datetime;
lastChange = "2013-05-07 13:01:17 -0500";
layers = (
{
layerId = "0E8E95BE-A652-47D8-991C-41CDFAEAC62E";
name = Regular;
paths = (
{
closed = 1;
nodes = (
"1584 1406 LINE SMOOTH",
"1584 1473 OFFCURVE",
"1529 1528 OFFCURVE",
"1462 1528 CURVE SMOOTH",
"1340 1528 LINE",
"1340 1619 LINE SMOOTH",
"1340 1703 OFFCURVE",
"1272 1772 OFFCURVE",
"1188 1772 CURVE SMOOTH",
"1127 1772 LINE SMOOTH",
"1043 1772 OFFCURVE",
"975 1703 OFFCURVE",
"975 1619 CURVE SMOOTH",
"975 1528 LINE",
"609 1528 LINE",
"609 1619 LINE SMOOTH",
"609 1703 OFFCURVE",
"540 1772 OFFCURVE",
"457 1772 CURVE SMOOTH",
"396 1772 LINE SMOOTH",
"312 1772 OFFCURVE",
"243 1703 OFFCURVE",
"243 1619 CURVE SMOOTH",
"243 1528 LINE",
"122 1528 LINE SMOOTH",
"55 1528 OFFCURVE",
"0 1473 OFFCURVE",
"0 1406 CURVE SMOOTH",
"0 188 LINE SMOOTH",
"0 121 OFFCURVE",
"55 66 OFFCURVE",
"122 66 CURVE SMOOTH",
"738 66 LINE",
"738 66 OFFCURVE",
"457 523 OFFCURVE",
"761 939 CURVE SMOOTH",
"1094 1392 OFFCURVE",
"1584 1253 OFFCURVE",
"1584 1253 CURVE"
);
},
{
closed = 1;
nodes = (
"1218 1329 OFFCURVE",
"1204 1315 OFFCURVE",
"1188 1315 CURVE SMOOTH",
"1127 1315 LINE SMOOTH",
"1111 1315 OFFCURVE",
"1096 1329 OFFCURVE",
"1096 1345 CURVE SMOOTH",
"1096 1619 LINE SMOOTH",
"1096 1636 OFFCURVE",
"1111 1650 OFFCURVE",
"1127 1650 CURVE SMOOTH",
"1188 1650 LINE SMOOTH",
"1204 1650 OFFCURVE",
"1218 1636 OFFCURVE",
"1218 1619 CURVE SMOOTH",
"1218 1345 LINE SMOOTH"
);
},
{
closed = 1;
nodes = (
"822 1162 LINE",
"1002 1162 LINE",
"906 1094 LINE",
"822 1014 LINE"
);
},
{
closed = 1;
nodes = (
"487 1329 OFFCURVE",
"473 1315 OFFCURVE",
"457 1315 CURVE SMOOTH",
"396 1315 LINE SMOOTH",
"380 1315 OFFCURVE",
"365 1329 OFFCURVE",
"365 1345 CURVE SMOOTH",
"365 1619 LINE SMOOTH",
"365 1636 OFFCURVE",
"380 1650 OFFCURVE",
"396 1650 CURVE SMOOTH",
"457 1650 LINE SMOOTH",
"473 1650 OFFCURVE",
"487 1636 OFFCURVE",
"487 1619 CURVE SMOOTH",
"487 1345 LINE SMOOTH"
);
},
{
closed = 1;
nodes = (
"457 888 LINE",
"457 1162 LINE",
"761 1162 LINE",
"761 939 LINE",
"729 888 LINE"
);
},
{
closed = 1;
nodes = (
"122 888 LINE",
"122 1162 LINE",
"396 1162 LINE",
"396 888 LINE"
);
},
{
closed = 1;
nodes = (
"457 523 LINE",
"457 827 LINE",
"696 827 LINE",
"638 674 LINE",
"618 523 LINE"
);
},
{
closed = 1;
nodes = (
"122 523 LINE",
"122 827 LINE",
"396 827 LINE",
"396 523 LINE"
);
},
{
closed = 1;
nodes = (
"457 188 LINE",
"457 462 LINE",
"618 462 LINE",
"676 188 LINE"
);
},
{
closed = 1;
nodes = (
"122 188 LINE",
"122 462 LINE",
"396 462 LINE",
"396 188 LINE"
);
},
{
closed = 1;
nodes = (
"2137 888 OFFCURVE",
"1809 1216 OFFCURVE",
"1406 1216 CURVE SMOOTH",
"1002 1216 OFFCURVE",
"675 888 OFFCURVE",
"675 485 CURVE SMOOTH",
"675 81 OFFCURVE",
"1002 -247 OFFCURVE",
"1406 -247 CURVE SMOOTH",
"1809 -247 OFFCURVE",
"2137 81 OFFCURVE",
"2137 485 CURVE SMOOTH"
);
},
{
closed = 1;
nodes = (
"1893 216 OFFCURVE",
"1674 -3 OFFCURVE",
"1406 -3 CURVE SMOOTH",
"1137 -3 OFFCURVE",
"918 216 OFFCURVE",
"918 485 CURVE SMOOTH",
"918 753 OFFCURVE",
"1137 972 OFFCURVE",
"1406 972 CURVE SMOOTH",
"1674 972 OFFCURVE",
"1893 753 OFFCURVE",
"1893 485 CURVE SMOOTH"
);
},
{
closed = 1;
nodes = (
"1710 454 LINE SMOOTH",
"1710 470 OFFCURVE",
"1696 485 OFFCURVE",
"1680 485 CURVE SMOOTH",
"1406 485 LINE",
"1406 820 LINE SMOOTH",
"1406 836 OFFCURVE",
"1392 850 OFFCURVE",
"1375 850 CURVE SMOOTH",
"1314 850 LINE SMOOTH",
"1298 850 OFFCURVE",
"1284 836 OFFCURVE",
"1284 820 CURVE SMOOTH",
"1284 393 LINE SMOOTH",
"1284 377 OFFCURVE",
"1298 363 OFFCURVE",
"1314 363 CURVE SMOOTH",
"1680 363 LINE SMOOTH",
"1696 363 OFFCURVE",
"1710 377 OFFCURVE",
"1710 393 CURVE SMOOTH"
);
}
);
width = 2137;
}
);
unicode = F00A;
},
{
glyphname = qtype_android_intent;
lastChange = "2013-05-22 09:24:22 -0500";
layers = (
{
layerId = "0E8E95BE-A652-47D8-991C-41CDFAEAC62E";
name = Regular;
paths = (
{
closed = 1;
nodes = (
"291 1139 LINE SMOOTH",
"263 1176 OFFCURVE",
"275 1231 OFFCURVE",
"317 1259 CURVE",
"317 1259 LINE",
"360 1282 OFFCURVE",
"412 1271 OFFCURVE",
"439 1231 CURVE SMOOTH",
"652 897 LINE",
"778 946 OFFCURVE",
"915 970 OFFCURVE",
"1060 970 CURVE SMOOTH",
"1202 970 OFFCURVE",
"1338 946 OFFCURVE",
"1460 901 CURVE",
"1672 1231 LINE SMOOTH",
"1700 1271 OFFCURVE",
"1753 1282 OFFCURVE",
"1796 1259 CURVE",
"1796 1259 LINE",
"1837 1231 OFFCURVE",
"1851 1176 OFFCURVE",
"1821 1139 CURVE SMOOTH",
"1623 825 LINE",
"1623 825 LINE",
"1922 655 OFFCURVE",
"2122 346 OFFCURVE",
"2122 -2 CURVE",
"0 -2 LINE",
"0 345 OFFCURVE",
"197 648 OFFCURVE",
"494 820 CURVE"
);
},
{
closed = 1;
nodes = (
"742 347 OFFCURVE",
"799 404 OFFCURVE",
"799 472 CURVE SMOOTH",
"799 543 OFFCURVE",
"742 598 OFFCURVE",
"673 598 CURVE SMOOTH",
"604 598 OFFCURVE",
"548 543 OFFCURVE",
"548 472 CURVE SMOOTH",
"548 404 OFFCURVE",
"604 347 OFFCURVE",
"673 347 CURVE SMOOTH"
);
},
{
closed = 1;
nodes = (
"1520 347 OFFCURVE",
"1575 404 OFFCURVE",
"1575 472 CURVE SMOOTH",
"1575 543 OFFCURVE",
"1520 598 OFFCURVE",
"1449 598 CURVE SMOOTH",
"1381 598 OFFCURVE",
"1323 543 OFFCURVE",
"1323 472 CURVE SMOOTH",
"1323 404 OFFCURVE",
"1381 347 OFFCURVE",
"1449 347 CURVE SMOOTH"
);
}
);
width = 2122;
}
);
unicode = F00C;
},
{
glyphname = qtype_audio_capture;
lastChange = "2013-05-07 13:01:18 -0500";
layers = (
{
layerId = "0E8E95BE-A652-47D8-991C-41CDFAEAC62E";
name = Regular;
paths = (
{
closed = 1;
nodes = (
"1891 1040 OFFCURVE",
"1685 834 OFFCURVE",
"1430 834 CURVE SMOOTH",
"1176 834 OFFCURVE",
"970 1040 OFFCURVE",
"970 1294 CURVE SMOOTH",
"970 1549 OFFCURVE",
"1176 1755 OFFCURVE",
"1430 1755 CURVE SMOOTH",
"1685 1755 OFFCURVE",
"1891 1549 OFFCURVE",
"1891 1294 CURVE SMOOTH"
);
},
{
closed = 1;
nodes = (
"1381 704 OFFCURVE",
"1070 542 OFFCURVE",
"786 364 CURVE SMOOTH",
"524 201 OFFCURVE",
"288 21 OFFCURVE",
"270 10 CURVE SMOOTH",
"235 -11 OFFCURVE",
"202 -4 OFFCURVE",
"182 19 CURVE SMOOTH",
"162 43 OFFCURVE",
"26 186 OFFCURVE",
"13 202 CURVE SMOOTH",
"-1 216 OFFCURVE",
"-8 248 OFFCURVE",
"16 276 CURVE SMOOTH",
"28 290 OFFCURVE",
"269 508 OFFCURVE",
"476 764 CURVE SMOOTH",
"684 1019 OFFCURVE",
"859 1311 OFFCURVE",
"859 1311 CURVE SMOOTH",
"859 1311 OFFCURVE",
"792 1074 OFFCURVE",
"967 883 CURVE SMOOTH",
"1144 690 OFFCURVE",
"1381 704 OFFCURVE",
"1381 704 CURVE SMOOTH"
);
}
);
width = 1891;
}
);
unicode = F00B;
},
{
glyphname = qtype_calculation;
lastChange = "2013-05-07 12:58:35 -0500";
layers = (
{
layerId = "0E8E95BE-A652-47D8-991C-41CDFAEAC62E";
name = Regular;
paths = (
{
closed = 1;
nodes = (
"429 752 OFFCURVE",
"386 797 OFFCURVE",
"317 797 CURVE SMOOTH",
"225 797 OFFCURVE",
"204 724 OFFCURVE",
"204 698 CURVE SMOOTH",
"204 677 OFFCURVE",
"208 662 OFFCURVE",
"215 645 CURVE",
"44 645 LINE",
"44 826 OFFCURVE",
"183 856 OFFCURVE",
"328 856 CURVE SMOOTH",
"453 856 OFFCURVE",
"598 816 OFFCURVE",
"598 658 CURVE SMOOTH",
"598 317 LINE SMOOTH",
"598 258 OFFCURVE",
"618 230 OFFCURVE",
"650 230 CURVE SMOOTH",
"674 230 OFFCURVE",
"697 253 OFFCURVE",
"706 266 CURVE",
"717 262 LINE",
"691 193 OFFCURVE",
"639 147 OFFCURVE",
"554 147 CURVE SMOOTH",
"483 147 OFFCURVE",
"445 201 OFFCURVE",
"436 266 CURVE",
"389 193 OFFCURVE",
"302 147 OFFCURVE",
"215 147 CURVE SMOOTH",
"93 147 OFFCURVE",
"0 211 OFFCURVE",
"0 336 CURVE SMOOTH",
"0 455 OFFCURVE",
"87 510 OFFCURVE",
"213 532 CURVE SMOOTH",
"429 571 LINE",
"429 677 LINE SMOOTH"
);
},
{
closed = 1;
nodes = (
"297 489 LINE SMOOTH",
"211 475 OFFCURVE",
"179 413 OFFCURVE",
"179 354 CURVE SMOOTH",
"179 282 OFFCURVE",
"226 238 OFFCURVE",
"290 238 CURVE SMOOTH",
"349 238 OFFCURVE",
"429 283 OFFCURVE",
"429 386 CURVE SMOOTH",
"429 512 LINE"
);
},
{
closed = 1;
nodes = (
"967 849 LINE",
"967 657 LINE",
"1149 657 LINE",
"1149 551 LINE",
"967 551 LINE",
"967 349 LINE",
"861 349 LINE",
"861 551 LINE",
"678 551 LINE",
"678 657 LINE",
"861 657 LINE",
"861 849 LINE"
);
},
{
closed = 1;
nodes = (
"1421 718 LINE",
"1453 802 OFFCURVE",
"1547 856 OFFCURVE",
"1639 856 CURVE SMOOTH",
"1837 856 OFFCURVE",
"1953 718 OFFCURVE",
"1953 497 CURVE SMOOTH",
"1953 306 OFFCURVE",
"1830 147 OFFCURVE",
"1635 147 CURVE SMOOTH",
"1533 147 OFFCURVE",
"1457 190 OFFCURVE",
"1417 286 CURVE",
"1414 286 LINE",
"1414 167 LINE",
"1129 167 LINE",
"1129 176 LINE",
"1172 194 LINE SMOOTH",
"1240 223 OFFCURVE",
"1249 231 OFFCURVE",
"1249 385 CURVE SMOOTH",
"1249 936 LINE SMOOTH",
"1249 1061 OFFCURVE",
"1238 1079 OFFCURVE",
"1172 1105 CURVE SMOOTH",
"1129 1121 LINE",
"1129 1130 LINE",
"1417 1130 LINE",
"1417 718 LINE"
);
},
{
closed = 1;
nodes = (
"1701 238 OFFCURVE",
"1758 346 OFFCURVE",
"1758 495 CURVE SMOOTH",
"1758 682 OFFCURVE",
"1690 765 OFFCURVE",
"1586 765 CURVE SMOOTH",
"1480 765 OFFCURVE",
"1413 671 OFFCURVE",
"1413 495 CURVE SMOOTH",
"1413 329 OFFCURVE",
"1471 238 OFFCURVE",
"1586 238 CURVE SMOOTH"
);
}
);
width = 1953;
}
);
unicode = F004;
},
{
glyphname = qtype_decimal;
lastChange = "2013-05-07 13:01:20 -0500";
layers = (
{
layerId = "0E8E95BE-A652-47D8-991C-41CDFAEAC62E";
name = Regular;
paths = (
{
closed = 1;
nodes = (
"0 155 OFFCURVE",
"6 181 OFFCURVE",
"16 208 CURVE SMOOTH",
"29 233 OFFCURVE",
"42 257 OFFCURVE",
"61 275 CURVE SMOOTH",
"82 295 OFFCURVE",
"105 310 OFFCURVE",
"131 321 CURVE SMOOTH",
"155 333 OFFCURVE",
"184 337 OFFCURVE",
"214 337 CURVE SMOOTH",
"244 337 OFFCURVE",
"271 333 OFFCURVE",
"297 321 CURVE SMOOTH",
"323 310 OFFCURVE",
"345 295 OFFCURVE",
"365 275 CURVE SMOOTH",
"386 257 OFFCURVE",
"400 233 OFFCURVE",
"410 208 CURVE SMOOTH",
"423 181 OFFCURVE",
"428 155 OFFCURVE",
"428 124 CURVE SMOOTH",
"428 94 OFFCURVE",
"423 66 OFFCURVE",
"410 40 CURVE SMOOTH",
"400 15 OFFCURVE",
"386 -9 OFFCURVE",
"365 -29 CURVE SMOOTH",
"345 -48 OFFCURVE",
"323 -61 OFFCURVE",
"297 -73 CURVE SMOOTH",
"271 -84 OFFCURVE",
"244 -90 OFFCURVE",
"214 -90 CURVE SMOOTH",
"184 -90 OFFCURVE",
"155 -84 OFFCURVE",
"131 -73 CURVE SMOOTH",
"105 -61 OFFCURVE",
"82 -48 OFFCURVE",
"61 -29 CURVE SMOOTH",
"42 -9 OFFCURVE",
"29 15 OFFCURVE",
"16 40 CURVE SMOOTH",
"6 66 OFFCURVE",
"0 94 OFFCURVE",
"0 124 CURVE SMOOTH"
);
},
{
closed = 1;
nodes = (
"570 844 OFFCURVE",
"579 943 OFFCURVE",
"595 1048 CURVE SMOOTH",
"614 1148 OFFCURVE",
"645 1242 OFFCURVE",
"689 1321 CURVE SMOOTH",
"736 1403 OFFCURVE",
"799 1471 OFFCURVE",
"877 1522 CURVE SMOOTH",
"957 1574 OFFCURVE",
"1057 1600 OFFCURVE",
"1179 1600 CURVE SMOOTH",
"1308 1600 OFFCURVE",
"1408 1574 OFFCURVE",
"1485 1522 CURVE SMOOTH",
"1566 1471 OFFCURVE",
"1628 1403 OFFCURVE",
"1671 1321 CURVE SMOOTH",
"1718 1242 OFFCURVE",
"1752 1148 OFFCURVE",
"1767 1048 CURVE SMOOTH",
"1785 943 OFFCURVE",
"1796 844 OFFCURVE",
"1796 747 CURVE SMOOTH",
"1796 648 OFFCURVE",
"1785 549 OFFCURVE",
"1767 450 CURVE SMOOTH",
"1752 348 OFFCURVE",
"1718 257 OFFCURVE",
"1671 176 CURVE SMOOTH",
"1628 94 OFFCURVE",
"1566 27 OFFCURVE",
"1485 -27 CURVE SMOOTH",
"1408 -77 OFFCURVE",
"1308 -103 OFFCURVE",
"1179 -103 CURVE SMOOTH",
"1057 -103 OFFCURVE",
"957 -77 OFFCURVE",
"877 -27 CURVE SMOOTH",
"799 27 OFFCURVE",
"736 94 OFFCURVE",
"689 176 CURVE SMOOTH",
"645 257 OFFCURVE",
"604 348 OFFCURVE",
"595 450 CURVE SMOOTH",
"586 550 OFFCURVE",
"570 648 OFFCURVE",
"570 747 CURVE SMOOTH"
);
},
{
closed = 1;
nodes = (
"917 703 OFFCURVE",
"919 652 OFFCURVE",
"922 590 CURVE SMOOTH",
"926 530 OFFCURVE",
"938 473 OFFCURVE",
"954 416 CURVE SMOOTH",
"971 361 OFFCURVE",
"996 315 OFFCURVE",
"1031 275 CURVE SMOOTH",
"1065 236 OFFCURVE",
"1116 218 OFFCURVE",
"1179 218 CURVE SMOOTH",
"1247 218 OFFCURVE",
"1295 236 OFFCURVE",
"1330 275 CURVE SMOOTH",
"1366 315 OFFCURVE",
"1393 361 OFFCURVE",
"1410 416 CURVE SMOOTH",
"1426 473 OFFCURVE",
"1437 530 OFFCURVE",
"1440 590 CURVE SMOOTH",
"1443 652 OFFCURVE",
"1446 703 OFFCURVE",
"1446 747 CURVE SMOOTH",
"1446 790 OFFCURVE",
"1443 842 OFFCURVE",
"1440 901 CURVE SMOOTH",
"1437 961 OFFCURVE",
"1426 1024 OFFCURVE",
"1410 1081 CURVE SMOOTH",
"1393 1137 OFFCURVE",
"1366 1182 OFFCURVE",
"1330 1222 CURVE SMOOTH",
"1295 1262 OFFCURVE",
"1247 1280 OFFCURVE",
"1179 1280 CURVE SMOOTH",
"1116 1280 OFFCURVE",
"1065 1262 OFFCURVE",
"1031 1222 CURVE SMOOTH",
"996 1182 OFFCURVE",
"971 1137 OFFCURVE",
"954 1081 CURVE SMOOTH",
"938 1024 OFFCURVE",
"926 961 OFFCURVE",
"922 901 CURVE SMOOTH",
"919 842 OFFCURVE",
"917 790 OFFCURVE",
"917 747 CURVE SMOOTH"
);
}
);
width = 1796;
}
);
unicode = F008;
},
{
glyphname = qtype_hidden_value;
lastChange = "2013-05-07 13:01:13 -0500";
layers = (
{
layerId = "0E8E95BE-A652-47D8-991C-41CDFAEAC62E";
name = Regular;
paths = (
{
closed = 1;
nodes = (
"1380 -30 LINE",
"1380 442 LINE SMOOTH",
"1380 462 OFFCURVE",
"1387 487 OFFCURVE",
"1400 505 CURVE SMOOTH",
"1415 528 OFFCURVE",
"1433 548 OFFCURVE",
"1461 563 CURVE",
"1633 690 LINE",
"1661 710 OFFCURVE",
"1689 718 OFFCURVE",
"1722 728 CURVE SMOOTH",
"1752 735 OFFCURVE",
"1787 748 OFFCURVE",
"1823 758 CURVE",
"1787 766 OFFCURVE",
"1752 776 OFFCURVE",
"1722 786 CURVE SMOOTH",
"1689 794 OFFCURVE",
"1661 806 OFFCURVE",
"1633 821 CURVE SMOOTH",
"1461 928 LINE",
"1433 943 OFFCURVE",
"1415 961 OFFCURVE",
"1400 981 CURVE SMOOTH",
"1387 1001 OFFCURVE",
"1380 1044 OFFCURVE",
"1380 1072 CURVE SMOOTH",
"1380 1549 LINE",
"2408 854 LINE",
"2408 659 LINE"
);
},
{
closed = 1;
nodes = (
"1034 1549 LINE",
"1034 1072 LINE SMOOTH",
"1034 1044 OFFCURVE",
"1024 1001 OFFCURVE",
"1008 981 CURVE SMOOTH",
"1001 961 OFFCURVE",
"978 943 OFFCURVE",
"948 928 CURVE",
"778 821 LINE SMOOTH",
"750 806 OFFCURVE",
"722 794 OFFCURVE",
"689 786 CURVE SMOOTH",
"656 776 OFFCURVE",
"626 766 OFFCURVE",
"588 758 CURVE",
"626 748 OFFCURVE",
"656 735 OFFCURVE",
"689 728 CURVE SMOOTH",
"722 718 OFFCURVE",
"750 710 OFFCURVE",
"778 690 CURVE",
"948 563 LINE",
"978 548 OFFCURVE",
"1001 528 OFFCURVE",
"1008 505 CURVE SMOOTH",
"1024 487 OFFCURVE",
"1034 462 OFFCURVE",
"1034 442 CURVE SMOOTH",
"1034 -30 LINE",
"0 659 LINE",
"0 854 LINE"
);
}
);
width = 2408;
}
);
unicode = F003;
},
{
glyphname = qtype_long;
lastChange = "2013-05-07 13:01:14 -0500";
layers = (
{
layerId = "0E8E95BE-A652-47D8-991C-41CDFAEAC62E";
name = Regular;
paths = (
{
closed = 1;
nodes = (
"137 1219 LINE",
"0 1377 LINE",
"371 1690 LINE",
"597 1690 LINE",
"597 552 LINE",
"365 552 LINE",
"365 1420 LINE"
);
},
{
closed = 1;
nodes = (
"1245 895 LINE SMOOTH",
"1268 915 OFFCURVE",
"1291 938 OFFCURVE",
"1313 964 CURVE SMOOTH",
"1336 990 OFFCURVE",
"1347 1020 OFFCURVE",
"1347 1054 CURVE SMOOTH",
"1347 1093 OFFCURVE",
"1332 1123 OFFCURVE",
"1305 1144 CURVE SMOOTH",
"1278 1167 OFFCURVE",
"1244 1178 OFFCURVE",
"1207 1178 CURVE SMOOTH",
"1162 1178 OFFCURVE",
"1126 1164 OFFCURVE",
"1102 1136 CURVE SMOOTH",
"1077 1108 OFFCURVE",
"1062 1073 OFFCURVE",
"1059 1033 CURVE",
"818 1051 LINE",
"821 1110 OFFCURVE",
"834 1160 OFFCURVE",
"854 1204 CURVE SMOOTH",
"876 1247 OFFCURVE",
"905 1284 OFFCURVE",
"940 1313 CURVE SMOOTH",
"975 1342 OFFCURVE",
"1017 1363 OFFCURVE",
"1065 1377 CURVE SMOOTH",
"1112 1392 OFFCURVE",
"1164 1400 OFFCURVE",
"1220 1400 CURVE SMOOTH",
"1271 1400 OFFCURVE",
"1319 1392 OFFCURVE",
"1364 1377 CURVE SMOOTH",
"1410 1363 OFFCURVE",
"1448 1342 OFFCURVE",
"1482 1313 CURVE SMOOTH",
"1515 1286 OFFCURVE",
"1542 1250 OFFCURVE",
"1560 1207 CURVE SMOOTH",
"1578 1164 OFFCURVE",
"1588 1113 OFFCURVE",
"1588 1057 CURVE SMOOTH",
"1588 1020 OFFCURVE",
"1585 988 OFFCURVE",
"1577 958 CURVE SMOOTH",
"1568 928 OFFCURVE",
"1559 902 OFFCURVE",
"1546 877 CURVE SMOOTH",
"1532 853 OFFCURVE",
"1515 832 OFFCURVE",
"1498 811 CURVE SMOOTH",
"1480 790 OFFCURVE",
"1459 771 OFFCURVE",
"1438 752 CURVE SMOOTH",
"1093 454 LINE",
"1598 454 LINE",
"1598 242 LINE",
"803 242 LINE",
"803 498 LINE"
);
},
{
closed = 1;
nodes = (
"2065 508 LINE SMOOTH",
"2088 508 OFFCURVE",
"2110 509 OFFCURVE",
"2131 513 CURVE SMOOTH",
"2152 516 OFFCURVE",
"2172 522 OFFCURVE",
"2190 531 CURVE SMOOTH",
"2208 540 OFFCURVE",
"2221 552 OFFCURVE",
"2232 569 CURVE SMOOTH",
"2243 587 OFFCURVE",
"2248 608 OFFCURVE",
"2248 635 CURVE SMOOTH",
"2248 669 OFFCURVE",
"2235 697 OFFCURVE",
"2208 720 CURVE SMOOTH",
"2180 743 OFFCURVE",
"2147 754 OFFCURVE",
"2106 754 CURVE SMOOTH",
"2070 754 OFFCURVE",
"2037 744 OFFCURVE",
"2013 723 CURVE SMOOTH",
"1989 702 OFFCURVE",
"1973 678 OFFCURVE",
"1965 648 CURVE",
"1700 702 LINE",
"1712 752 OFFCURVE",
"1732 794 OFFCURVE",
"1758 828 CURVE SMOOTH",
"1783 863 OFFCURVE",
"1814 892 OFFCURVE",
"1849 913 CURVE SMOOTH",
"1885 934 OFFCURVE",
"1925 950 OFFCURVE",
"1968 960 CURVE SMOOTH",
"2012 971 OFFCURVE",
"2057 976 OFFCURVE",
"2105 976 CURVE SMOOTH",
"2155 976 OFFCURVE",
"2205 969 OFFCURVE",
"2251 956 CURVE SMOOTH",
"2298 945 OFFCURVE",
"2338 926 OFFCURVE",
"2373 898 CURVE SMOOTH",
"2409 873 OFFCURVE",
"2438 841 OFFCURVE",
"2459 801 CURVE SMOOTH",
"2480 760 OFFCURVE",
"2489 714 OFFCURVE",
"2489 659 CURVE SMOOTH",
"2489 596 OFFCURVE",
"2473 542 OFFCURVE",
"2439 496 CURVE SMOOTH",
"2406 452 OFFCURVE",
"2357 422 OFFCURVE",
"2294 410 CURVE",
"2294 405 LINE",
"2328 400 OFFCURVE",
"2359 391 OFFCURVE",
"2386 374 CURVE SMOOTH",
"2412 358 OFFCURVE",
"2434 339 OFFCURVE",
"2452 315 CURVE SMOOTH",
"2470 290 OFFCURVE",
"2485 265 OFFCURVE",
"2494 234 CURVE SMOOTH",
"2503 204 OFFCURVE",
"2508 173 OFFCURVE",
"2508 140 CURVE SMOOTH",
"2508 84 OFFCURVE",
"2497 33 OFFCURVE",
"2477 -10 CURVE SMOOTH",
"2454 -53 OFFCURVE",
"2425 -89 OFFCURVE",
"2388 -117 CURVE SMOOTH",
"2351 -145 OFFCURVE",
"2307 -166 OFFCURVE",
"2258 -180 CURVE SMOOTH",
"2208 -195 OFFCURVE",
"2155 -201 OFFCURVE",
"2098 -201 CURVE SMOOTH",
"1997 -201 OFFCURVE",
"1908 -177 OFFCURVE",
"1836 -130 CURVE SMOOTH",
"1763 -84 OFFCURVE",
"1714 -8 OFFCURVE",
"1690 93 CURVE",
"1944 153 LINE",
"1952 112 OFFCURVE",
"1969 80 OFFCURVE",
"1997 56 CURVE SMOOTH",
"2023 32 OFFCURVE",
"2061 21 OFFCURVE",
"2113 21 CURVE SMOOTH",
"2166 21 OFFCURVE",
"2205 33 OFFCURVE",
"2230 61 CURVE SMOOTH",
"2254 88 OFFCURVE",
"2267 124 OFFCURVE",
"2267 167 CURVE SMOOTH",
"2267 199 OFFCURVE",
"2261 223 OFFCURVE",
"2248 241 CURVE SMOOTH",
"2233 259 OFFCURVE",
"2216 273 OFFCURVE",
"2195 281 CURVE SMOOTH",
"2174 289 OFFCURVE",
"2150 294 OFFCURVE",
"2123 295 CURVE SMOOTH",
"2096 297 OFFCURVE",
"2070 299 OFFCURVE",
"2042 299 CURVE SMOOTH",
"1986 299 LINE",
"1986 508 LINE"
);
}
);
width = 2708;
}
);
unicode = F009;
},
{
glyphname = qtype_multi_select;
lastChange = "2013-05-07 13:01:19 -0500";
layers = (
{
layerId = "0E8E95BE-A652-47D8-991C-41CDFAEAC62E";
name = Regular;
paths = (
{
closed = 1;
nodes = (
"2152 1236 LINE SMOOTH",
"2152 1334 OFFCURVE",
"2072 1414 OFFCURVE",
"1974 1414 CURVE SMOOTH",
"1128 1414 LINE SMOOTH",
"1030 1414 OFFCURVE",
"950 1334 OFFCURVE",
"950 1236 CURVE SMOOTH",
"950 1159 LINE SMOOTH",
"950 1061 OFFCURVE",
"1030 982 OFFCURVE",
"1128 982 CURVE SMOOTH",
"1974 982 LINE SMOOTH",
"2072 982 OFFCURVE",
"2152 1061 OFFCURVE",
"2152 1159 CURVE SMOOTH"
);
},
{
closed = 1;
nodes = (
"530 1029 LINE",
"184 1029 LINE",
"184 1366 LINE",
"530 1366 LINE"
);
},
{
closed = 1;
nodes = (
"176 1552 LINE SMOOTH",
"79 1552 OFFCURVE",
"0 1472 OFFCURVE",
"0 1374 CURVE SMOOTH",
"0 1021 LINE SMOOTH",
"0 923 OFFCURVE",
"79 844 OFFCURVE",
"176 844 CURVE SMOOTH",
"536 844 LINE SMOOTH",
"635 844 OFFCURVE",
"714 923 OFFCURVE",
"714 1021 CURVE SMOOTH",
"714 1374 LINE SMOOTH",
"714 1472 OFFCURVE",
"635 1552 OFFCURVE",
"536 1552 CURVE SMOOTH"
);
},
{
closed = 1;
nodes = (
"2152 253 LINE SMOOTH",
"2152 350 OFFCURVE",
"2072 430 OFFCURVE",
"1974 430 CURVE SMOOTH",
"1128 430 LINE SMOOTH",
"1030 430 OFFCURVE",
"950 350 OFFCURVE",
"950 253 CURVE SMOOTH",
"950 173 LINE SMOOTH",
"950 75 OFFCURVE",
"1030 -3 OFFCURVE",
"1128 -3 CURVE SMOOTH",
"1974 -3 LINE SMOOTH",
"2072 -3 OFFCURVE",
"2152 75 OFFCURVE",
"2152 173 CURVE SMOOTH"
);
},
{
closed = 1;
nodes = (
"530 43 LINE",
"184 43 LINE",
"184 384 LINE",
"530 384 LINE"
);
},
{
closed = 1;
nodes = (
"176 568 LINE SMOOTH",
"79 568 OFFCURVE",
"0 488 OFFCURVE",
"0 391 CURVE SMOOTH",
"0 35 LINE SMOOTH",
"0 -63 OFFCURVE",
"79 -141 OFFCURVE",
"176 -141 CURVE SMOOTH",
"536 -141 LINE SMOOTH",
"635 -141 OFFCURVE",
"714 -63 OFFCURVE",
"714 35 CURVE SMOOTH",
"714 391 LINE SMOOTH",
"714 488 OFFCURVE",
"635 568 OFFCURVE",
"536 568 CURVE SMOOTH"
);
}
);
width = 2152;
}
);
unicode = F007;
},
{
glyphname = qtype_multi_select_box;
lastChange = "2014-11-05 20:31:09 -0500";
layers = (
{
layerId = "0E8E95BE-A652-47D8-991C-41CDFAEAC62E";
name = Regular;
paths = (
{
closed = 1;
nodes = (
"1362 359 LINE",
"473 359 LINE",
"473 1226 LINE",
"1362 1226 LINE"
);
},
{
closed = 1;
nodes = (
"451 1705 LINE SMOOTH",
"202 1705 OFFCURVE",
"0 1499 OFFCURVE",
"0 1248 CURVE SMOOTH",
"0 340 LINE SMOOTH",
"0 87 OFFCURVE",
"202 -117 OFFCURVE",
"451 -117 CURVE SMOOTH",
"1378 -117 LINE SMOOTH",
"1632 -117 OFFCURVE",
"1835 87 OFFCURVE",
"1835 340 CURVE SMOOTH",
"1835 1248 LINE SMOOTH",
"1835 1499 OFFCURVE",
"1632 1705 OFFCURVE",
"1378 1705 CURVE SMOOTH"
);
}
);
width = 1835;
}
);
unicode = F010;
},
{
glyphname = qtype_numeric;
lastChange = "2013-05-07 13:01:15 -0500";
layers = (
{
layerId = "0E8E95BE-A652-47D8-991C-41CDFAEAC62E";
name = Regular;
paths = (
{
closed = 1;
nodes = (
"200 -102 LINE",
"1284 -102 LINE",
"1284 299 LINE",
"996 299 LINE",
"996 1690 LINE",
"635 1690 LINE",
"511 1573 OFFCURVE",
"365 1480 OFFCURVE",
"200 1413 CURVE",
"200 1049 LINE",
"298 1049 OFFCURVE",
"331 1054 OFFCURVE",
"391 1087 CURVE SMOOTH",
"452 1124 OFFCURVE",
"514 1155 OFFCURVE",
"579 1196 CURVE",
"579 299 LINE",
"200 299 LINE"
);
}
);
width = 1484;
}
);
unicode = F002;
},
{
glyphname = qtype_signature;
lastChange = "2014-11-05 15:26:46 -0500";
layers = (
{
layerId = "0E8E95BE-A652-47D8-991C-41CDFAEAC62E";
name = Regular;
paths = (
{
closed = 1;
nodes = (
"2132 1592 LINE",
"2014 1623 LINE",
"2003 1629 LINE SMOOTH",
"1966 1636 OFFCURVE",
"1924 1614 OFFCURVE",
"1916 1577 CURVE SMOOTH",
"1558 276 LINE",
"1549 241 LINE SMOOTH",
"1549 241 OFFCURVE",
"1549 238 OFFCURVE",
"1549 231 CURVE SMOOTH",
"1551 206 OFFCURVE",
"1555 146 OFFCURVE",
"1565 51 CURVE SMOOTH",
"1573 7 OFFCURVE",
"1580 -48 OFFCURVE",
"1587 -109 CURVE SMOOTH",
"1591 -148 LINE",
"1615 -119 LINE SMOOTH",
"1654 -66 OFFCURVE",
"1687 -24 OFFCURVE",
"1714 13 CURVE SMOOTH",
"1773 87 OFFCURVE",
"1809 135 OFFCURVE",
"1822 155 CURVE SMOOTH",
"1824 161 OFFCURVE",
"1825 167 OFFCURVE",
"1825 167 CURVE SMOOTH",
"1834 199 LINE",
"2193 1501 LINE SMOOTH",
"2202 1540 OFFCURVE",
"2180 1579 OFFCURVE",
"2144 1587 CURVE SMOOTH"
);
},
{
closed = 1;
nodes = (
"1790 164 OFFCURVE",
"1739 94 OFFCURVE",
"1681 20 CURVE",
"1600 43 LINE",
"1589 135 OFFCURVE",
"1580 221 OFFCURVE",
"1580 235 CURVE",
"1589 269 LINE",
"1603 274 OFFCURVE",
"1615 276 OFFCURVE",
"1632 271 CURVE SMOOTH",
"1633 271 OFFCURVE",
"1639 269 OFFCURVE",
"1642 267 CURVE SMOOTH",
"1664 257 OFFCURVE",
"1678 234 OFFCURVE",
"1677 209 CURVE SMOOTH",
"1677 205 OFFCURVE",
"1677 199 OFFCURVE",
"1674 196 CURVE",
"1697 190 LINE",
"1697 193 OFFCURVE",
"1699 198 OFFCURVE",
"1700 203 CURVE SMOOTH",
"1712 225 OFFCURVE",
"1734 238 OFFCURVE",
"1761 235 CURVE SMOOTH",
"1763 235 OFFCURVE",
"1768 235 OFFCURVE",
"1773 234 CURVE SMOOTH",
"1785 228 OFFCURVE",
"1797 220 OFFCURVE",
"1805 211 CURVE",
"1797 177 LINE"
);
},
{
closed = 1;
nodes = (
"0 776 OFFCURVE",
"13 784 OFFCURVE",
"33 798 CURVE SMOOTH",
"52 812 OFFCURVE",
"79 831 OFFCURVE",
"118 856 CURVE SMOOTH",
"192 903 OFFCURVE",
"297 972 OFFCURVE",
"436 1042 CURVE SMOOTH",
"506 1075 OFFCURVE",
"584 1110 OFFCURVE",
"673 1136 CURVE SMOOTH",
"718 1148 OFFCURVE",
"766 1162 OFFCURVE",
"823 1167 CURVE SMOOTH",
"876 1170 OFFCURVE",
"943 1170 OFFCURVE",
"1013 1132 CURVE",
"1039 1117 LINE",
"1046 1111 OFFCURVE",
"1054 1104 OFFCURVE",
"1062 1097 CURVE",
"1077 1087 OFFCURVE",
"1090 1071 OFFCURVE",
"1101 1055 CURVE SMOOTH",
"1105 1048 LINE",
"1106 1043 OFFCURVE",
"1101 1055 OFFCURVE",
"1110 1039 CURVE",
"1112 1039 LINE",
"1112 1037 LINE",
"1116 1028 LINE",
"1125 1013 LINE",
"1130 1002 OFFCURVE",
"1132 991 OFFCURVE",
"1136 978 CURVE SMOOTH",
"1141 962 LINE",
"1143 946 LINE SMOOTH",
"1151 905 OFFCURVE",
"1141 867 OFFCURVE",
"1132 834 CURVE",
"1123 802 OFFCURVE",
"1106 773 OFFCURVE",
"1091 748 CURVE SMOOTH",
"1032 652 OFFCURVE",
"957 585 OFFCURVE",
"891 516 CURVE SMOOTH",
"823 446 OFFCURVE",
"756 379 OFFCURVE",
"721 309 CURVE SMOOTH",
"702 274 OFFCURVE",
"695 241 OFFCURVE",
"702 213 CURVE SMOOTH",
"706 184 OFFCURVE",
"724 154 OFFCURVE",
"754 126 CURVE",
"756 123 OFFCURVE",
"760 119 OFFCURVE",
"760 116 CURVE",
"773 108 LINE SMOOTH",
"783 101 OFFCURVE",
"792 90 OFFCURVE",
"801 87 CURVE",
"823 70 LINE",
"847 57 LINE",
"882 36 OFFCURVE",
"920 23 OFFCURVE",
"955 16 CURVE SMOOTH",
"1032 -2 OFFCURVE",
"1106 2 OFFCURVE",
"1176 9 CURVE SMOOTH",
"1248 16 OFFCURVE",
"1315 27 OFFCURVE",
"1379 27 CURVE SMOOTH",
"1410 27 OFFCURVE",
"1439 26 OFFCURVE",
"1465 16 CURVE SMOOTH",
"1492 7 OFFCURVE",
"1514 -9 OFFCURVE",
"1530 -24 CURVE SMOOTH",
"1562 -58 OFFCURVE",
"1571 -92 OFFCURVE",
"1580 -114 CURVE",
"1584 -136 OFFCURVE",
"1587 -148 OFFCURVE",
"1587 -148 CURVE SMOOTH",
"1587 -148 OFFCURVE",
"1582 -136 OFFCURVE",
"1573 -115 CURVE",
"1564 -96 OFFCURVE",
"1549 -64 OFFCURVE",
"1517 -40 CURVE SMOOTH",
"1501 -26 OFFCURVE",
"1481 -19 OFFCURVE",
"1459 -13 CURVE SMOOTH",
"1434 -9 OFFCURVE",
"1410 -10 OFFCURVE",
"1380 -13 CURVE SMOOTH",
"1324 -20 OFFCURVE",
"1260 -40 OFFCURVE",
"1188 -55 CURVE SMOOTH",
"1116 -71 OFFCURVE",
"1032 -84 OFFCURVE",
"942 -73 CURVE SMOOTH",
"894 -66 OFFCURVE",
"850 -55 OFFCURVE",
"802 -38 CURVE SMOOTH",
"770 -22 LINE",
"735 -2 LINE SMOOTH",
"724 5 OFFCURVE",
"718 13 OFFCURVE",
"706 16 CURVE SMOOTH",
"693 27 LINE",
"676 41 LINE SMOOTH",
"635 74 OFFCURVE",
"594 119 OFFCURVE",
"577 183 CURVE SMOOTH",
"561 245 OFFCURVE",
"572 311 OFFCURVE",
"593 366 CURVE SMOOTH",
"637 472 OFFCURVE",
"706 546 OFFCURVE",
"766 625 CURVE SMOOTH",
"830 699 OFFCURVE",
"894 773 OFFCURVE",
"927 843 CURVE SMOOTH",
"936 857 OFFCURVE",
"942 873 OFFCURVE",
"946 887 CURVE",
"946 901 OFFCURVE",
"949 911 OFFCURVE",
"946 917 CURVE",
"946 918 LINE",
"946 918 OFFCURVE",
"943 917 OFFCURVE",
"943 917 CURVE SMOOTH",
"943 917 OFFCURVE",
"946 917 OFFCURVE",
"946 917 CURVE",
"936 929 LINE",
"933 939 LINE",
"933 941 LINE",
"931 941 LINE",
"942 925 OFFCURVE",
"935 936 OFFCURVE",
"935 934 CURVE",
"935 934 LINE",
"931 936 OFFCURVE",
"931 941 OFFCURVE",
"926 941 CURVE",
"926 941 OFFCURVE",
"924 943 OFFCURVE",
"924 943 CURVE",
"921 943 OFFCURVE",
"920 946 OFFCURVE",
"917 946 CURVE SMOOTH",
"905 949 OFFCURVE",
"879 953 OFFCURVE",
"846 947 CURVE SMOOTH",
"814 943 OFFCURVE",
"780 933 OFFCURVE",
"744 918 CURVE SMOOTH",
"677 892 OFFCURVE",
"613 857 OFFCURVE",
"552 822 CURVE SMOOTH",
"433 753 OFFCURVE",
"337 684 OFFCURVE",
"273 635 CURVE SMOOTH",
"238 609 OFFCURVE",
"214 589 OFFCURVE",
"198 577 CURVE SMOOTH",
"179 562 OFFCURVE",
"171 556 OFFCURVE",
"171 556 CURVE",
"0 776 LINE"
);
}
);
width = 2195.02;
}
);
unicode = F00D;
},
{
glyphname = qtype_single_select;
lastChange = "2013-05-07 13:10:54 -0500";
layers = (
{
layerId = "0E8E95BE-A652-47D8-991C-41CDFAEAC62E";
name = Regular;
paths = (
{
closed = 1;
nodes = (
"451 1367 OFFCURVE",
"526 1293 OFFCURVE",
"526 1199 CURVE SMOOTH",
"526 1105 OFFCURVE",
"451 1027 OFFCURVE",
"355 1027 CURVE SMOOTH",
"260 1027 OFFCURVE",
"183 1105 OFFCURVE",
"183 1199 CURVE SMOOTH",
"183 1293 OFFCURVE",
"260 1367 OFFCURVE",
"355 1367 CURVE SMOOTH"
);
},
{
closed = 1;
nodes = (
"160 1555 OFFCURVE",
"0 1395 OFFCURVE",
"0 1199 CURVE SMOOTH",
"0 1002 OFFCURVE",
"160 843 OFFCURVE",
"355 843 CURVE SMOOTH",
"551 843 OFFCURVE",
"710 1002 OFFCURVE",
"710 1199 CURVE SMOOTH",
"710 1395 OFFCURVE",
"551 1555 OFFCURVE",
"355 1555 CURVE SMOOTH"
);
},
{
closed = 1;
nodes = (
"2153 1236 LINE SMOOTH",
"2153 1334 OFFCURVE",
"2073 1414 OFFCURVE",
"1975 1414 CURVE SMOOTH",
"1129 1414 LINE SMOOTH",
"1031 1414 OFFCURVE",
"951 1334 OFFCURVE",
"951 1236 CURVE SMOOTH",
"951 1159 LINE SMOOTH",
"951 1061 OFFCURVE",
"1031 982 OFFCURVE",
"1129 982 CURVE SMOOTH",
"1975 982 LINE SMOOTH",
"2073 982 OFFCURVE",
"2153 1061 OFFCURVE",
"2153 1159 CURVE SMOOTH"
);
},
{
closed = 1;
nodes = (
"2153 253 LINE SMOOTH",
"2153 350 OFFCURVE",
"2073 430 OFFCURVE",
"1975 430 CURVE SMOOTH",
"1129 430 LINE SMOOTH",
"1031 430 OFFCURVE",
"951 350 OFFCURVE",
"951 253 CURVE SMOOTH",
"951 173 LINE SMOOTH",
"951 75 OFFCURVE",
"1031 -3 OFFCURVE",
"1129 -3 CURVE SMOOTH",
"1975 -3 LINE SMOOTH",
"2073 -3 OFFCURVE",
"2153 75 OFFCURVE",
"2153 173 CURVE SMOOTH"
);
},
{
closed = 1;
nodes = (
"160 570 OFFCURVE",
"0 410 OFFCURVE",
"0 214 CURVE SMOOTH",
"0 17 OFFCURVE",
"160 -142 OFFCURVE",
"355 -142 CURVE SMOOTH",
"551 -142 OFFCURVE",
"710 17 OFFCURVE",
"710 214 CURVE SMOOTH",
"710 410 OFFCURVE",
"551 570 OFFCURVE",
"355 570 CURVE SMOOTH"
);
}
);
width = 2153;
}
);
unicode = F006;
},
{
glyphname = qtype_single_select_circle;
lastChange = "2014-11-05 20:30:59 -0500";
layers = (
{
layerId = "0E8E95BE-A652-47D8-991C-41CDFAEAC62E";
name = Regular;
paths = (
{
closed = 1;
nodes = (
"1166 1228 OFFCURVE",
"1360 1037 OFFCURVE",
"1360 794 CURVE SMOOTH",
"1360 551 OFFCURVE",
"1166 349 OFFCURVE",
"918 349 CURVE SMOOTH",
"672 349 OFFCURVE",
"473 551 OFFCURVE",
"473 794 CURVE SMOOTH",
"473 1037 OFFCURVE",
"672 1228 OFFCURVE",
"918 1228 CURVE SMOOTH"
);
},
{
closed = 1;
nodes = (
"414 1714 OFFCURVE",
"0 1301 OFFCURVE",
"0 794 CURVE SMOOTH",
"0 285 OFFCURVE",
"414 -126 OFFCURVE",
"918 -126 CURVE SMOOTH",
"1425 -126 OFFCURVE",
"1836 285 OFFCURVE",
"1836 794 CURVE SMOOTH",
"1836 1301 OFFCURVE",
"1425 1714 OFFCURVE",
"918 1714 CURVE SMOOTH"
);
}
);
width = 1836;
}
);
unicode = F011;
},
{
glyphname = qtype_text;
lastChange = "2014-11-05 15:22:51 -0500";
layers = (
{
layerId = "0E8E95BE-A652-47D8-991C-41CDFAEAC62E";
name = Regular;
paths = (
{
closed = 1;
nodes = (
"609 250 OFFCURVE",
"547 223 OFFCURVE",
"413 161 CURVE SMOOTH",
"297 125 LINE",
"297 -102 LINE",
"1503 -102 LINE",
"1503 125 LINE",
"1379 161 LINE SMOOTH",
"1241 223 OFFCURVE",
"1182 250 OFFCURVE",
"1182 409 CURVE SMOOTH",
"1182 1197 LINE SMOOTH",
"1182 1269 OFFCURVE",
"1187 1296 OFFCURVE",
"1193 1362 CURVE",
"1318 1362 LINE SMOOTH",
"1409 1362 OFFCURVE",
"1444 1364 OFFCURVE",
"1572 1082 CURVE SMOOTH",
"1594 1022 LINE",
"1791 1022 LINE",
"1791 1690 LINE",
"0 1690 LINE",
"0 1022 LINE",
"213 1022 LINE",
"233 1082 LINE SMOOTH",
"363 1364 OFFCURVE",
"393 1362 OFFCURVE",
"494 1362 CURVE SMOOTH",
"604 1362 LINE",
"607 1296 OFFCURVE",
"609 1269 OFFCURVE",
"609 1197 CURVE SMOOTH",
"609 409 LINE SMOOTH"
);
}
);
width = 1791;
}
);
unicode = F001;
},
{
glyphname = qtype_variable;
lastChange = "2014-11-05 20:33:49 -0500";
layers = (
{
layerId = "0E8E95BE-A652-47D8-991C-41CDFAEAC62E";
name = Regular;
paths = (
{
closed = 1;
nodes = (
"0 1261 OFFCURVE",
"12 1333 OFFCURVE",
"38 1408 CURVE SMOOTH",
"64 1479 OFFCURVE",
"108 1545 OFFCURVE",
"175 1603 CURVE SMOOTH",
"240 1661 OFFCURVE",
"317 1690 OFFCURVE",
"407 1690 CURVE SMOOTH",
"443 1690 OFFCURVE",
"474 1682 OFFCURVE",
"502 1666 CURVE SMOOTH",
"533 1652 OFFCURVE",
"557 1625 OFFCURVE",
"578 1591 CURVE SMOOTH",
"599 1556 OFFCURVE",
"616 1526 OFFCURVE",
"627 1500 CURVE SMOOTH",
"640 1472 OFFCURVE",
"659 1435 OFFCURVE",
"680 1389 CURVE SMOOTH",
"702 1342 OFFCURVE",
"718 1311 OFFCURVE",
"728 1294 CURVE",
"753 1241 OFFCURVE",
"803 1141 OFFCURVE",
"878 990 CURVE",
"914 1044 OFFCURVE",
"1037 1256 OFFCURVE",
"1305 1629 CURVE",
"1330 1659 OFFCURVE",
"1366 1676 OFFCURVE",
"1411 1676 CURVE SMOOTH",
"1556 1676 LINE SMOOTH",
"1637 1676 OFFCURVE",
"1676 1663 OFFCURVE",
"1676 1638 CURVE SMOOTH",
"1676 1625 OFFCURVE",
"1664 1603 OFFCURVE",
"1638 1573 CURVE",
"1089 801 LINE SMOOTH",
"1048 741 OFFCURVE",
"1021 699 OFFCURVE",
"1004 690 CURVE",
"1111 486 OFFCURVE",
"1168 372 OFFCURVE",
"1173 364 CURVE",
"1237 290 OFFCURVE",
"1329 254 OFFCURVE",
"1445 254 CURVE SMOOTH",
"1506 254 OFFCURVE",
"1554 269 OFFCURVE",
"1590 296 CURVE SMOOTH",
"1630 324 OFFCURVE",
"1651 356 OFFCURVE",
"1660 393 CURVE SMOOTH",
"1667 427 OFFCURVE",
"1680 448 OFFCURVE",
"1697 455 CURVE",
"1709 459 OFFCURVE",
"1722 461 OFFCURVE",
"1740 461 CURVE SMOOTH",
"1797 461 OFFCURVE",
"1824 439 OFFCURVE",
"1824 400 CURVE SMOOTH",
"1824 279 OFFCURVE",
"1790 166 OFFCURVE",
"1719 58 CURVE SMOOTH",
"1651 -50 OFFCURVE",
"1549 -102 OFFCURVE",
"1418 -102 CURVE SMOOTH",
"1375 -102 OFFCURVE",
"1334 -94 OFFCURVE",
"1300 -77 CURVE SMOOTH",
"1265 -62 OFFCURVE",
"1235 -37 OFFCURVE",
"1207 -1 CURVE SMOOTH",
"1182 32 OFFCURVE",
"1162 63 OFFCURVE",
"1149 90 CURVE SMOOTH",
"1136 117 OFFCURVE",
"1121 155 OFFCURVE",
"1102 204 CURVE SMOOTH",
"1084 252 OFFCURVE",
"1072 284 OFFCURVE",
"1062 301 CURVE SMOOTH",
"1038 351 OFFCURVE",
"1000 447 OFFCURVE",
"946 586 CURVE",
"934 570 OFFCURVE",
"920 549 OFFCURVE",
"899 519 CURVE SMOOTH",
"876 491 OFFCURVE",
"830 426 OFFCURVE",
"757 322 CURVE SMOOTH",
"684 219 OFFCURVE",
"599 98 OFFCURVE",
"499 -42 CURVE",
"475 -73 OFFCURVE",
"444 -88 OFFCURVE",
"405 -88 CURVE SMOOTH",
"266 -88 LINE SMOOTH",
"187 -88 OFFCURVE",
"149 -75 OFFCURVE",
"149 -51 CURVE SMOOTH",
"149 -37 OFFCURVE",
"156 -13 OFFCURVE",
"167 16 CURVE",
"715 759 LINE SMOOTH",
"751 812 OFFCURVE",
"774 847 OFFCURVE",
"790 864 CURVE",
"672 1096 OFFCURVE",
"613 1215 OFFCURVE",
"606 1223 CURVE SMOOTH",
"547 1298 OFFCURVE",
"465 1333 OFFCURVE",
"357 1333 CURVE SMOOTH",
"304 1333 OFFCURVE",
"260 1320 OFFCURVE",
"228 1293 CURVE SMOOTH",
"192 1265 OFFCURVE",
"174 1231 OFFCURVE",
"165 1194 CURVE SMOOTH",
"158 1161 OFFCURVE",
"146 1141 OFFCURVE",
"128 1131 CURVE",
"116 1129 OFFCURVE",
"102 1127 OFFCURVE",
"84 1127 CURVE SMOOTH",
"81 1127 LINE SMOOTH",
"27 1127 OFFCURVE",
"0 1148 OFFCURVE",
"0 1190 CURVE SMOOTH"
);
}
